G04 EAGLE Gerber RS-274X export*
G75*
%MOMM*%
%FSLAX34Y34*%
%LPD*%
%INTop Copper*%
%IPPOS*%
%AMOC8*
5,1,8,0,0,1.08239X$1,22.5*%
G01*
%ADD10R,1.270000X2.540000*%
%ADD11C,3.316000*%
%ADD12C,1.350000*%
%ADD13C,0.508000*%
%ADD14C,0.304800*%
%ADD15C,0.609600*%
%ADD16C,0.406400*%

G36*
X19349Y73491D02*
X19349Y73491D01*
X19476Y73498D01*
X19522Y73511D01*
X19570Y73517D01*
X19689Y73559D01*
X19810Y73594D01*
X19853Y73618D01*
X19898Y73634D01*
X20004Y73703D01*
X20115Y73764D01*
X20161Y73804D01*
X20191Y73823D01*
X20224Y73858D01*
X20301Y73923D01*
X46546Y100169D01*
X48787Y101097D01*
X76213Y101097D01*
X78454Y100169D01*
X86377Y92245D01*
X86476Y92166D01*
X86570Y92082D01*
X86612Y92058D01*
X86650Y92028D01*
X86764Y91974D01*
X86875Y91913D01*
X86922Y91900D01*
X86965Y91879D01*
X87089Y91853D01*
X87211Y91818D01*
X87271Y91813D01*
X87306Y91806D01*
X87354Y91807D01*
X87454Y91799D01*
X89949Y91799D01*
X93551Y90307D01*
X96307Y87551D01*
X96593Y86861D01*
X96641Y86773D01*
X96681Y86681D01*
X96726Y86621D01*
X96762Y86556D01*
X96829Y86482D01*
X96889Y86401D01*
X96946Y86353D01*
X96996Y86298D01*
X97079Y86241D01*
X97155Y86176D01*
X97222Y86142D01*
X97283Y86100D01*
X97376Y86063D01*
X97466Y86017D01*
X97538Y85999D01*
X97607Y85972D01*
X97706Y85957D01*
X97804Y85933D01*
X97878Y85932D01*
X97952Y85921D01*
X98052Y85929D01*
X98152Y85928D01*
X98225Y85944D01*
X98299Y85950D01*
X98395Y85981D01*
X98493Y86002D01*
X98560Y86034D01*
X98631Y86057D01*
X98717Y86109D01*
X98808Y86152D01*
X98866Y86199D01*
X98929Y86237D01*
X99001Y86307D01*
X99080Y86369D01*
X99126Y86428D01*
X99179Y86480D01*
X99234Y86564D01*
X99296Y86643D01*
X99342Y86733D01*
X99368Y86773D01*
X99379Y86806D01*
X99407Y86861D01*
X99693Y87551D01*
X102449Y90307D01*
X106051Y91799D01*
X109264Y91799D01*
X109390Y91813D01*
X109516Y91820D01*
X109562Y91833D01*
X109610Y91839D01*
X109729Y91881D01*
X109851Y91916D01*
X109893Y91940D01*
X109938Y91956D01*
X110045Y92025D01*
X110155Y92086D01*
X110201Y92126D01*
X110231Y92145D01*
X110265Y92180D01*
X110341Y92245D01*
X116048Y97952D01*
X117834Y99738D01*
X119888Y100589D01*
X142362Y100589D01*
X144416Y99738D01*
X170231Y73923D01*
X170330Y73844D01*
X170424Y73760D01*
X170466Y73736D01*
X170504Y73706D01*
X170618Y73652D01*
X170729Y73591D01*
X170775Y73578D01*
X170819Y73557D01*
X170942Y73531D01*
X171064Y73496D01*
X171125Y73492D01*
X171160Y73484D01*
X171208Y73485D01*
X171308Y73477D01*
X184666Y73477D01*
X184692Y73480D01*
X184718Y73478D01*
X184865Y73500D01*
X185012Y73517D01*
X185037Y73525D01*
X185063Y73529D01*
X185201Y73584D01*
X185340Y73634D01*
X185362Y73648D01*
X185387Y73658D01*
X185508Y73743D01*
X185633Y73823D01*
X185651Y73842D01*
X185673Y73857D01*
X185772Y73967D01*
X185875Y74074D01*
X185889Y74096D01*
X185906Y74116D01*
X185978Y74246D01*
X186054Y74373D01*
X186062Y74398D01*
X186075Y74421D01*
X186115Y74564D01*
X186160Y74705D01*
X186162Y74731D01*
X186170Y74756D01*
X186189Y75000D01*
X186189Y99625D01*
X186186Y99651D01*
X186188Y99676D01*
X186166Y99824D01*
X186149Y99971D01*
X186141Y99995D01*
X186137Y100021D01*
X186082Y100159D01*
X186032Y100300D01*
X186018Y100321D01*
X186009Y100345D01*
X185924Y100467D01*
X185843Y100592D01*
X185825Y100610D01*
X185810Y100631D01*
X185699Y100731D01*
X185592Y100835D01*
X185570Y100848D01*
X185551Y100865D01*
X185421Y100937D01*
X185293Y101013D01*
X185269Y101021D01*
X185246Y101034D01*
X185103Y101074D01*
X184961Y101120D01*
X184936Y101122D01*
X184911Y101129D01*
X184762Y101136D01*
X184614Y101148D01*
X184589Y101144D01*
X184563Y101145D01*
X184417Y101118D01*
X184269Y101096D01*
X184245Y101086D01*
X184220Y101082D01*
X184084Y101022D01*
X183945Y100967D01*
X183924Y100953D01*
X183901Y100942D01*
X183781Y100853D01*
X183659Y100768D01*
X183642Y100749D01*
X183622Y100734D01*
X183458Y100553D01*
X183262Y100298D01*
X182289Y99030D01*
X180470Y97211D01*
X178429Y95644D01*
X176200Y94358D01*
X173823Y93373D01*
X171338Y92707D01*
X170547Y92603D01*
X170547Y110476D01*
X170544Y110502D01*
X170546Y110528D01*
X170524Y110675D01*
X170507Y110822D01*
X170499Y110847D01*
X170495Y110873D01*
X170440Y111011D01*
X170390Y111150D01*
X170376Y111172D01*
X170366Y111197D01*
X170281Y111318D01*
X170201Y111443D01*
X170182Y111461D01*
X170167Y111483D01*
X170057Y111582D01*
X169950Y111685D01*
X169928Y111699D01*
X169908Y111716D01*
X169778Y111788D01*
X169651Y111864D01*
X169626Y111872D01*
X169603Y111885D01*
X169460Y111925D01*
X169319Y111970D01*
X169293Y111972D01*
X169268Y111979D01*
X169024Y111999D01*
X167499Y111999D01*
X167499Y112001D01*
X169024Y112001D01*
X169050Y112004D01*
X169076Y112002D01*
X169223Y112024D01*
X169370Y112041D01*
X169395Y112050D01*
X169421Y112053D01*
X169559Y112108D01*
X169698Y112158D01*
X169720Y112173D01*
X169745Y112182D01*
X169866Y112267D01*
X169991Y112347D01*
X170009Y112366D01*
X170031Y112381D01*
X170130Y112491D01*
X170233Y112598D01*
X170247Y112620D01*
X170264Y112640D01*
X170336Y112770D01*
X170412Y112897D01*
X170420Y112922D01*
X170433Y112945D01*
X170473Y113088D01*
X170518Y113229D01*
X170520Y113255D01*
X170528Y113280D01*
X170547Y113524D01*
X170547Y131397D01*
X171338Y131293D01*
X173823Y130627D01*
X176200Y129642D01*
X178429Y128356D01*
X180470Y126789D01*
X182289Y124970D01*
X183458Y123447D01*
X183475Y123429D01*
X183489Y123408D01*
X183596Y123304D01*
X183700Y123197D01*
X183721Y123183D01*
X183740Y123165D01*
X183868Y123089D01*
X183993Y123008D01*
X184017Y123000D01*
X184039Y122987D01*
X184181Y122941D01*
X184321Y122891D01*
X184346Y122888D01*
X184371Y122880D01*
X184519Y122868D01*
X184667Y122851D01*
X184693Y122854D01*
X184718Y122852D01*
X184866Y122875D01*
X185014Y122892D01*
X185037Y122900D01*
X185063Y122904D01*
X185202Y122959D01*
X185342Y123009D01*
X185363Y123023D01*
X185387Y123033D01*
X185509Y123118D01*
X185634Y123199D01*
X185652Y123217D01*
X185673Y123232D01*
X185773Y123342D01*
X185876Y123450D01*
X185889Y123472D01*
X185906Y123491D01*
X185978Y123621D01*
X186055Y123749D01*
X186062Y123773D01*
X186075Y123796D01*
X186116Y123939D01*
X186161Y124081D01*
X186163Y124106D01*
X186170Y124131D01*
X186189Y124375D01*
X186189Y140000D01*
X186184Y140042D01*
X186185Y140120D01*
X185942Y143196D01*
X185931Y143252D01*
X185929Y143309D01*
X185879Y143520D01*
X185876Y143538D01*
X185874Y143542D01*
X185873Y143547D01*
X183971Y149399D01*
X183923Y149505D01*
X183882Y149615D01*
X183843Y149678D01*
X183826Y149716D01*
X183799Y149751D01*
X183755Y149824D01*
X180138Y154801D01*
X180059Y154887D01*
X179987Y154979D01*
X179930Y155028D01*
X179903Y155058D01*
X179866Y155083D01*
X179801Y155138D01*
X174824Y158755D01*
X174722Y158812D01*
X174625Y158877D01*
X174556Y158906D01*
X174520Y158926D01*
X174477Y158939D01*
X174399Y158971D01*
X168547Y160873D01*
X168491Y160884D01*
X168437Y160904D01*
X168224Y160938D01*
X168206Y160942D01*
X168202Y160942D01*
X168196Y160942D01*
X165120Y161185D01*
X165077Y161183D01*
X165000Y161189D01*
X25000Y161189D01*
X24958Y161184D01*
X24880Y161185D01*
X21804Y160942D01*
X21748Y160931D01*
X21691Y160929D01*
X21480Y160879D01*
X21462Y160876D01*
X21458Y160874D01*
X21453Y160873D01*
X15601Y158971D01*
X15495Y158923D01*
X15385Y158882D01*
X15322Y158843D01*
X15284Y158826D01*
X15249Y158799D01*
X15176Y158755D01*
X10199Y155138D01*
X10113Y155059D01*
X10021Y154987D01*
X9972Y154930D01*
X9942Y154903D01*
X9917Y154866D01*
X9862Y154801D01*
X6245Y149824D01*
X6188Y149722D01*
X6123Y149625D01*
X6094Y149556D01*
X6074Y149520D01*
X6061Y149477D01*
X6029Y149399D01*
X4127Y143547D01*
X4116Y143491D01*
X4096Y143437D01*
X4062Y143224D01*
X4058Y143206D01*
X4058Y143202D01*
X4058Y143196D01*
X3815Y140120D01*
X3817Y140077D01*
X3811Y140000D01*
X3811Y124375D01*
X3814Y124349D01*
X3812Y124324D01*
X3834Y124176D01*
X3851Y124028D01*
X3859Y124004D01*
X3863Y123979D01*
X3918Y123840D01*
X3968Y123700D01*
X3982Y123679D01*
X3991Y123655D01*
X4076Y123533D01*
X4157Y123408D01*
X4175Y123390D01*
X4190Y123369D01*
X4301Y123269D01*
X4408Y123165D01*
X4430Y123152D01*
X4449Y123135D01*
X4579Y123063D01*
X4707Y122987D01*
X4731Y122979D01*
X4754Y122966D01*
X4897Y122926D01*
X5039Y122880D01*
X5064Y122878D01*
X5089Y122871D01*
X5238Y122864D01*
X5386Y122852D01*
X5411Y122856D01*
X5437Y122855D01*
X5583Y122882D01*
X5731Y122904D01*
X5755Y122914D01*
X5780Y122918D01*
X5916Y122978D01*
X6055Y123033D01*
X6076Y123047D01*
X6099Y123058D01*
X6219Y123147D01*
X6341Y123232D01*
X6358Y123251D01*
X6378Y123266D01*
X6542Y123447D01*
X7228Y124341D01*
X7711Y124970D01*
X9530Y126789D01*
X11571Y128356D01*
X13800Y129642D01*
X16177Y130627D01*
X18662Y131293D01*
X19453Y131397D01*
X19453Y113524D01*
X19456Y113498D01*
X19454Y113472D01*
X19476Y113325D01*
X19493Y113178D01*
X19501Y113153D01*
X19505Y113127D01*
X19560Y112989D01*
X19610Y112850D01*
X19624Y112828D01*
X19634Y112803D01*
X19719Y112682D01*
X19799Y112557D01*
X19818Y112539D01*
X19833Y112517D01*
X19943Y112418D01*
X20050Y112315D01*
X20072Y112301D01*
X20092Y112284D01*
X20222Y112212D01*
X20349Y112136D01*
X20374Y112128D01*
X20397Y112115D01*
X20540Y112075D01*
X20681Y112030D01*
X20707Y112028D01*
X20732Y112021D01*
X20976Y112001D01*
X22501Y112001D01*
X22501Y111999D01*
X20976Y111999D01*
X20950Y111996D01*
X20924Y111998D01*
X20777Y111976D01*
X20630Y111959D01*
X20605Y111950D01*
X20579Y111947D01*
X20441Y111892D01*
X20302Y111842D01*
X20280Y111827D01*
X20255Y111818D01*
X20134Y111733D01*
X20009Y111653D01*
X19991Y111634D01*
X19969Y111619D01*
X19870Y111509D01*
X19767Y111402D01*
X19753Y111380D01*
X19736Y111360D01*
X19664Y111230D01*
X19588Y111103D01*
X19580Y111078D01*
X19567Y111055D01*
X19527Y110912D01*
X19482Y110771D01*
X19480Y110745D01*
X19472Y110720D01*
X19453Y110476D01*
X19453Y92603D01*
X18662Y92707D01*
X16177Y93373D01*
X13800Y94358D01*
X11571Y95644D01*
X9530Y97211D01*
X7711Y99030D01*
X6542Y100553D01*
X6525Y100571D01*
X6511Y100592D01*
X6403Y100696D01*
X6300Y100803D01*
X6279Y100817D01*
X6260Y100835D01*
X6132Y100911D01*
X6007Y100992D01*
X5983Y101000D01*
X5961Y101013D01*
X5820Y101059D01*
X5679Y101109D01*
X5654Y101112D01*
X5629Y101120D01*
X5481Y101132D01*
X5333Y101149D01*
X5307Y101146D01*
X5282Y101148D01*
X5134Y101126D01*
X4986Y101108D01*
X4962Y101100D01*
X4937Y101096D01*
X4799Y101041D01*
X4658Y100991D01*
X4637Y100977D01*
X4613Y100967D01*
X4491Y100882D01*
X4366Y100801D01*
X4348Y100783D01*
X4327Y100768D01*
X4228Y100658D01*
X4124Y100550D01*
X4111Y100528D01*
X4094Y100510D01*
X4021Y100379D01*
X3945Y100251D01*
X3938Y100227D01*
X3925Y100204D01*
X3885Y100061D01*
X3839Y99919D01*
X3837Y99894D01*
X3830Y99869D01*
X3811Y99625D01*
X3811Y75000D01*
X3814Y74974D01*
X3812Y74948D01*
X3834Y74801D01*
X3851Y74654D01*
X3859Y74629D01*
X3863Y74603D01*
X3918Y74465D01*
X3968Y74326D01*
X3982Y74304D01*
X3992Y74279D01*
X4077Y74158D01*
X4157Y74033D01*
X4176Y74015D01*
X4191Y73993D01*
X4301Y73894D01*
X4408Y73791D01*
X4430Y73777D01*
X4450Y73760D01*
X4580Y73688D01*
X4707Y73612D01*
X4732Y73604D01*
X4755Y73591D01*
X4898Y73551D01*
X5039Y73506D01*
X5065Y73504D01*
X5090Y73496D01*
X5334Y73477D01*
X19224Y73477D01*
X19349Y73491D01*
G37*
%LPC*%
G36*
X98047Y123047D02*
X98047Y123047D01*
X98047Y139397D01*
X98838Y139293D01*
X101323Y138627D01*
X103700Y137642D01*
X105929Y136356D01*
X107970Y134789D01*
X109789Y132970D01*
X111356Y130929D01*
X112642Y128700D01*
X113627Y126323D01*
X114293Y123838D01*
X114397Y123047D01*
X98047Y123047D01*
G37*
%LPD*%
%LPC*%
G36*
X25547Y115047D02*
X25547Y115047D01*
X25547Y131397D01*
X26338Y131293D01*
X28823Y130627D01*
X31200Y129642D01*
X33429Y128356D01*
X35470Y126789D01*
X37289Y124970D01*
X38856Y122929D01*
X40142Y120700D01*
X41127Y118323D01*
X41793Y115838D01*
X41897Y115047D01*
X25547Y115047D01*
G37*
%LPD*%
%LPC*%
G36*
X98047Y116953D02*
X98047Y116953D01*
X114397Y116953D01*
X114293Y116162D01*
X113627Y113677D01*
X112642Y111300D01*
X111356Y109071D01*
X109789Y107030D01*
X107970Y105211D01*
X105929Y103644D01*
X103700Y102358D01*
X101323Y101373D01*
X98838Y100707D01*
X98047Y100603D01*
X98047Y116953D01*
G37*
%LPD*%
%LPC*%
G36*
X25547Y108953D02*
X25547Y108953D01*
X41897Y108953D01*
X41793Y108162D01*
X41127Y105677D01*
X40142Y103300D01*
X38856Y101071D01*
X37289Y99030D01*
X35470Y97211D01*
X33429Y95644D01*
X31200Y94358D01*
X28823Y93373D01*
X26338Y92707D01*
X25547Y92603D01*
X25547Y108953D01*
G37*
%LPD*%
%LPC*%
G36*
X148103Y115047D02*
X148103Y115047D01*
X148207Y115838D01*
X148873Y118323D01*
X149858Y120700D01*
X151144Y122929D01*
X152228Y124341D01*
X152711Y124970D01*
X154530Y126789D01*
X156571Y128356D01*
X158800Y129642D01*
X161177Y130627D01*
X163662Y131293D01*
X164453Y131397D01*
X164453Y115047D01*
X148103Y115047D01*
G37*
%LPD*%
%LPC*%
G36*
X75603Y123047D02*
X75603Y123047D01*
X75707Y123838D01*
X76373Y126323D01*
X77358Y128700D01*
X78644Y130929D01*
X79434Y131957D01*
X80211Y132970D01*
X82030Y134789D01*
X84071Y136356D01*
X86300Y137642D01*
X88677Y138627D01*
X91162Y139293D01*
X91953Y139397D01*
X91953Y123047D01*
X75603Y123047D01*
G37*
%LPD*%
%LPC*%
G36*
X91162Y100707D02*
X91162Y100707D01*
X88677Y101373D01*
X86300Y102358D01*
X84071Y103644D01*
X82030Y105211D01*
X80211Y107030D01*
X78644Y109071D01*
X77358Y111300D01*
X76373Y113677D01*
X75707Y116162D01*
X75603Y116953D01*
X91953Y116953D01*
X91953Y100603D01*
X91162Y100707D01*
G37*
%LPD*%
%LPC*%
G36*
X163662Y92707D02*
X163662Y92707D01*
X161177Y93373D01*
X158800Y94358D01*
X156571Y95644D01*
X154530Y97211D01*
X152711Y99030D01*
X151144Y101071D01*
X149858Y103300D01*
X148873Y105677D01*
X148207Y108162D01*
X148103Y108953D01*
X164453Y108953D01*
X164453Y92603D01*
X163662Y92707D01*
G37*
%LPD*%
%LPC*%
G36*
X94999Y119999D02*
X94999Y119999D01*
X94999Y120001D01*
X95001Y120001D01*
X95001Y119999D01*
X94999Y119999D01*
G37*
%LPD*%
D10*
X173750Y17500D03*
X16250Y17500D03*
X151250Y17500D03*
X106250Y17500D03*
X83750Y17500D03*
X128750Y17500D03*
D11*
X95000Y120000D03*
D12*
X135000Y82000D03*
X108000Y82000D03*
X88000Y82000D03*
X55000Y82000D03*
X135000Y57000D03*
X55000Y57000D03*
X75000Y57000D03*
X115000Y57000D03*
X95000Y57000D03*
D11*
X167500Y112000D03*
X22500Y112000D03*
D10*
X38750Y17500D03*
X61250Y17500D03*
D13*
X108000Y82000D02*
X121000Y95000D01*
X141250Y95000D01*
X173750Y62500D01*
X173750Y17500D01*
D14*
X170000Y28750D02*
X177500Y28750D01*
D15*
X88000Y82000D02*
X75000Y95000D01*
X50000Y95000D01*
X16250Y61250D01*
X16250Y17500D01*
D14*
X12500Y28750D02*
X20000Y28750D01*
D13*
X135000Y82000D02*
X151250Y65750D01*
X151250Y17500D01*
D14*
X147500Y28750D02*
X155000Y28750D01*
D13*
X115000Y57000D02*
X106250Y48250D01*
X106250Y17500D01*
X83750Y45750D02*
X95000Y57000D01*
X83750Y45750D02*
X83750Y17500D01*
D14*
X80000Y28750D02*
X87500Y28750D01*
D13*
X128750Y17500D02*
X128750Y50750D01*
X135000Y57000D01*
X55000Y57000D02*
X38750Y40750D01*
X38750Y20000D01*
D16*
X38750Y17500D01*
D13*
X61250Y17500D02*
X61250Y43250D01*
X75000Y57000D01*
D14*
X20000Y28750D02*
X12500Y28750D01*
X16250Y35000D01*
X20000Y28750D01*
X35000Y28750D02*
X42500Y28750D01*
X38750Y35000D02*
X35000Y28750D01*
X38750Y35000D02*
X42500Y28750D01*
X57500Y28750D02*
X65000Y28750D01*
X61250Y35000D02*
X57500Y28750D01*
X61250Y35000D02*
X65000Y28750D01*
X80000Y28750D02*
X87500Y28750D01*
X83750Y35000D02*
X80000Y28750D01*
X83750Y35000D02*
X87500Y28750D01*
X102500Y28750D02*
X110000Y28750D01*
X106250Y35000D02*
X102500Y28750D01*
X106250Y35000D02*
X110000Y28750D01*
X125000Y28750D02*
X132500Y28750D01*
X128750Y35000D02*
X125000Y28750D01*
X128750Y35000D02*
X132500Y28750D01*
X147500Y28750D02*
X155000Y28750D01*
X151250Y35000D02*
X147500Y28750D01*
X151250Y35000D02*
X155000Y28750D01*
X170000Y28750D02*
X177500Y28750D01*
X173750Y35000D02*
X170000Y28750D01*
X173750Y35000D02*
X177500Y28750D01*
M02*
