G04 EAGLE Gerber RS-274X export*
G75*
%MOMM*%
%FSLAX34Y34*%
%LPD*%
%INBottom Copper*%
%IPPOS*%
%AMOC8*
5,1,8,0,0,1.08239X$1,22.5*%
G01*
%ADD10C,0.203200*%
%ADD11R,1.000000X1.500000*%
%ADD12C,3.316000*%
%ADD13C,1.350000*%
%ADD14C,0.508000*%

G36*
X184692Y3814D02*
X184692Y3814D01*
X184718Y3812D01*
X184865Y3834D01*
X185012Y3851D01*
X185037Y3859D01*
X185063Y3863D01*
X185201Y3918D01*
X185340Y3968D01*
X185362Y3982D01*
X185387Y3992D01*
X185508Y4077D01*
X185633Y4157D01*
X185651Y4176D01*
X185673Y4191D01*
X185772Y4301D01*
X185875Y4408D01*
X185889Y4430D01*
X185906Y4450D01*
X185978Y4580D01*
X186054Y4707D01*
X186062Y4732D01*
X186075Y4755D01*
X186115Y4898D01*
X186160Y5039D01*
X186162Y5065D01*
X186170Y5090D01*
X186189Y5334D01*
X186189Y99625D01*
X186186Y99651D01*
X186188Y99676D01*
X186166Y99824D01*
X186149Y99971D01*
X186141Y99995D01*
X186137Y100021D01*
X186082Y100159D01*
X186032Y100300D01*
X186018Y100321D01*
X186009Y100345D01*
X185924Y100467D01*
X185843Y100592D01*
X185824Y100610D01*
X185810Y100631D01*
X185699Y100731D01*
X185592Y100835D01*
X185570Y100848D01*
X185551Y100865D01*
X185421Y100937D01*
X185293Y101013D01*
X185269Y101021D01*
X185246Y101034D01*
X185103Y101074D01*
X184961Y101120D01*
X184936Y101122D01*
X184911Y101129D01*
X184762Y101136D01*
X184614Y101148D01*
X184589Y101144D01*
X184563Y101145D01*
X184417Y101118D01*
X184269Y101096D01*
X184245Y101086D01*
X184220Y101082D01*
X184084Y101022D01*
X183945Y100967D01*
X183924Y100953D01*
X183901Y100942D01*
X183781Y100853D01*
X183659Y100768D01*
X183642Y100749D01*
X183622Y100734D01*
X183458Y100553D01*
X182403Y99179D01*
X182403Y99178D01*
X182289Y99030D01*
X180470Y97211D01*
X178429Y95644D01*
X176200Y94358D01*
X173823Y93373D01*
X171338Y92707D01*
X170547Y92603D01*
X170547Y110476D01*
X170546Y110486D01*
X170546Y110490D01*
X170544Y110504D01*
X170546Y110528D01*
X170524Y110675D01*
X170507Y110822D01*
X170499Y110847D01*
X170495Y110873D01*
X170440Y111011D01*
X170390Y111150D01*
X170376Y111172D01*
X170366Y111197D01*
X170281Y111318D01*
X170201Y111443D01*
X170182Y111461D01*
X170167Y111483D01*
X170057Y111582D01*
X169950Y111685D01*
X169928Y111699D01*
X169908Y111716D01*
X169778Y111788D01*
X169651Y111864D01*
X169626Y111872D01*
X169603Y111885D01*
X169460Y111925D01*
X169319Y111970D01*
X169293Y111972D01*
X169268Y111979D01*
X169024Y111999D01*
X167499Y111999D01*
X167499Y112001D01*
X169024Y112001D01*
X169050Y112004D01*
X169076Y112002D01*
X169223Y112024D01*
X169370Y112041D01*
X169395Y112050D01*
X169421Y112053D01*
X169559Y112108D01*
X169698Y112158D01*
X169720Y112173D01*
X169745Y112182D01*
X169866Y112267D01*
X169991Y112347D01*
X170009Y112366D01*
X170031Y112381D01*
X170130Y112491D01*
X170233Y112598D01*
X170247Y112620D01*
X170264Y112640D01*
X170336Y112770D01*
X170412Y112897D01*
X170420Y112922D01*
X170433Y112945D01*
X170473Y113088D01*
X170518Y113229D01*
X170520Y113255D01*
X170528Y113280D01*
X170547Y113524D01*
X170547Y131397D01*
X171338Y131293D01*
X173823Y130627D01*
X176200Y129642D01*
X178429Y128356D01*
X180470Y126789D01*
X182289Y124970D01*
X183458Y123447D01*
X183475Y123429D01*
X183489Y123408D01*
X183596Y123304D01*
X183700Y123197D01*
X183721Y123183D01*
X183740Y123165D01*
X183868Y123089D01*
X183993Y123008D01*
X184017Y123000D01*
X184039Y122987D01*
X184181Y122941D01*
X184321Y122891D01*
X184346Y122888D01*
X184371Y122880D01*
X184519Y122868D01*
X184667Y122851D01*
X184693Y122854D01*
X184718Y122852D01*
X184866Y122875D01*
X185014Y122892D01*
X185037Y122900D01*
X185063Y122904D01*
X185202Y122959D01*
X185342Y123009D01*
X185363Y123023D01*
X185387Y123033D01*
X185509Y123118D01*
X185634Y123199D01*
X185652Y123217D01*
X185673Y123232D01*
X185773Y123342D01*
X185876Y123450D01*
X185889Y123472D01*
X185906Y123491D01*
X185978Y123621D01*
X186055Y123749D01*
X186062Y123773D01*
X186075Y123796D01*
X186116Y123939D01*
X186161Y124081D01*
X186163Y124106D01*
X186170Y124131D01*
X186189Y124375D01*
X186189Y140000D01*
X186184Y140042D01*
X186185Y140120D01*
X185942Y143196D01*
X185931Y143252D01*
X185929Y143309D01*
X185879Y143519D01*
X185876Y143538D01*
X185874Y143542D01*
X185873Y143547D01*
X183971Y149399D01*
X183923Y149505D01*
X183882Y149615D01*
X183843Y149678D01*
X183826Y149716D01*
X183799Y149751D01*
X183755Y149824D01*
X180138Y154801D01*
X180059Y154887D01*
X179987Y154979D01*
X179930Y155028D01*
X179903Y155058D01*
X179866Y155083D01*
X179801Y155138D01*
X174824Y158755D01*
X174722Y158812D01*
X174625Y158877D01*
X174556Y158906D01*
X174520Y158926D01*
X174477Y158939D01*
X174399Y158971D01*
X168547Y160873D01*
X168491Y160884D01*
X168437Y160904D01*
X168224Y160938D01*
X168206Y160942D01*
X168202Y160942D01*
X168196Y160942D01*
X165120Y161185D01*
X165077Y161183D01*
X165000Y161189D01*
X164851Y161189D01*
X164821Y161186D01*
X164791Y161188D01*
X164648Y161166D01*
X164505Y161149D01*
X164476Y161139D01*
X164447Y161135D01*
X164313Y161081D01*
X164177Y161032D01*
X164151Y161016D01*
X164123Y161004D01*
X164005Y160921D01*
X163884Y160843D01*
X163863Y160821D01*
X163838Y160804D01*
X163742Y160696D01*
X163642Y160592D01*
X163626Y160566D01*
X163606Y160544D01*
X163537Y160417D01*
X163463Y160293D01*
X163454Y160264D01*
X163439Y160238D01*
X163401Y160099D01*
X163357Y159961D01*
X163354Y159931D01*
X163346Y159902D01*
X163340Y159758D01*
X163329Y159614D01*
X163333Y159584D01*
X163332Y159554D01*
X163359Y159412D01*
X163380Y159269D01*
X163391Y159241D01*
X163397Y159212D01*
X163488Y158985D01*
X165111Y155740D01*
X162797Y148798D01*
X162793Y148780D01*
X162786Y148763D01*
X162757Y148610D01*
X162725Y148457D01*
X162726Y148438D01*
X162722Y148420D01*
X162729Y148265D01*
X162733Y148108D01*
X162738Y148090D01*
X162738Y148072D01*
X162750Y148024D01*
X162165Y146853D01*
X162152Y146817D01*
X162082Y146654D01*
X161665Y145402D01*
X161544Y145323D01*
X161531Y145310D01*
X161516Y145299D01*
X161410Y145184D01*
X161303Y145071D01*
X161293Y145055D01*
X161281Y145041D01*
X161255Y144999D01*
X160014Y144585D01*
X159979Y144569D01*
X159814Y144503D01*
X158634Y143913D01*
X158492Y143943D01*
X158474Y143942D01*
X158456Y143945D01*
X158300Y143938D01*
X158144Y143935D01*
X158126Y143930D01*
X158108Y143929D01*
X158060Y143918D01*
X156889Y144503D01*
X156853Y144516D01*
X156690Y144585D01*
X155030Y145139D01*
X155001Y145156D01*
X154908Y145185D01*
X154819Y145224D01*
X154743Y145237D01*
X154668Y145261D01*
X154571Y145268D01*
X154476Y145285D01*
X154398Y145281D01*
X154321Y145287D01*
X154225Y145272D01*
X154128Y145267D01*
X154053Y145246D01*
X153976Y145234D01*
X153886Y145198D01*
X153793Y145171D01*
X153725Y145133D01*
X153653Y145104D01*
X153574Y145048D01*
X153489Y145001D01*
X153408Y144932D01*
X153368Y144904D01*
X153345Y144878D01*
X153303Y144842D01*
X152712Y144251D01*
X143418Y144251D01*
X141037Y146632D01*
X141037Y150000D01*
X143554Y152517D01*
X143632Y152616D01*
X143717Y152710D01*
X143740Y152752D01*
X143770Y152790D01*
X143824Y152904D01*
X143886Y153015D01*
X143899Y153061D01*
X143919Y153105D01*
X143946Y153228D01*
X143980Y153350D01*
X143985Y153411D01*
X143993Y153446D01*
X143992Y153494D01*
X144000Y153594D01*
X144000Y158675D01*
X143994Y158724D01*
X143991Y158843D01*
X143881Y159834D01*
X143855Y159948D01*
X143837Y160063D01*
X143816Y160117D01*
X143803Y160174D01*
X143752Y160279D01*
X143709Y160387D01*
X143675Y160435D01*
X143650Y160487D01*
X143576Y160577D01*
X143510Y160673D01*
X143466Y160712D01*
X143429Y160757D01*
X143337Y160828D01*
X143251Y160906D01*
X143200Y160935D01*
X143154Y160970D01*
X143048Y161019D01*
X142946Y161075D01*
X142890Y161091D01*
X142837Y161115D01*
X142722Y161138D01*
X142610Y161170D01*
X142536Y161176D01*
X142495Y161184D01*
X142450Y161183D01*
X142367Y161189D01*
X138387Y161189D01*
X138298Y161179D01*
X138208Y161179D01*
X138125Y161159D01*
X138041Y161149D01*
X137956Y161119D01*
X137868Y161098D01*
X137793Y161060D01*
X137713Y161032D01*
X137637Y160983D01*
X137556Y160943D01*
X137491Y160889D01*
X137420Y160843D01*
X137357Y160778D01*
X137288Y160721D01*
X137237Y160653D01*
X137178Y160592D01*
X137132Y160515D01*
X137077Y160443D01*
X137042Y160366D01*
X136999Y160293D01*
X136972Y160207D01*
X136935Y160125D01*
X136919Y160042D01*
X136893Y159961D01*
X136886Y159871D01*
X136868Y159783D01*
X136872Y159698D01*
X136865Y159614D01*
X136878Y159525D01*
X136882Y159435D01*
X136909Y159319D01*
X136916Y159269D01*
X136927Y159242D01*
X136938Y159197D01*
X137369Y157866D01*
X137369Y157865D01*
X137888Y156264D01*
X136171Y152902D01*
X136144Y152831D01*
X136109Y152764D01*
X136083Y152668D01*
X136049Y152575D01*
X136039Y152500D01*
X136020Y152428D01*
X136017Y152328D01*
X136004Y152230D01*
X136012Y152155D01*
X136009Y152079D01*
X136029Y151982D01*
X136039Y151883D01*
X136064Y151811D01*
X136079Y151738D01*
X136120Y151647D01*
X136152Y151553D01*
X136192Y151489D01*
X136224Y151421D01*
X136312Y151297D01*
X136337Y151258D01*
X136350Y151245D01*
X136366Y151222D01*
X136453Y151121D01*
X136484Y151091D01*
X136536Y151030D01*
X137635Y149932D01*
X137641Y149899D01*
X137687Y149799D01*
X137698Y149769D01*
X137572Y148213D01*
X137573Y148170D01*
X137567Y148090D01*
X137567Y146536D01*
X137548Y146508D01*
X137510Y146405D01*
X137496Y146376D01*
X136307Y145366D01*
X136278Y145334D01*
X136216Y145282D01*
X135118Y144183D01*
X135085Y144177D01*
X134985Y144131D01*
X134955Y144120D01*
X133399Y144246D01*
X133356Y144245D01*
X133276Y144251D01*
X125889Y144251D01*
X125880Y144258D01*
X125863Y144278D01*
X125744Y144367D01*
X125628Y144459D01*
X125604Y144470D01*
X125583Y144486D01*
X125447Y144544D01*
X125313Y144608D01*
X125287Y144613D01*
X125263Y144624D01*
X125117Y144650D01*
X124972Y144681D01*
X124946Y144681D01*
X124920Y144685D01*
X124772Y144678D01*
X124624Y144675D01*
X124598Y144669D01*
X124572Y144667D01*
X124430Y144626D01*
X124286Y144590D01*
X124262Y144578D01*
X124237Y144571D01*
X124108Y144498D01*
X123976Y144430D01*
X123956Y144413D01*
X123933Y144401D01*
X123757Y144251D01*
X117226Y144251D01*
X116387Y144735D01*
X116302Y144772D01*
X116222Y144818D01*
X116143Y144841D01*
X116067Y144874D01*
X115976Y144890D01*
X115888Y144917D01*
X115806Y144922D01*
X115724Y144936D01*
X115632Y144932D01*
X115540Y144937D01*
X115459Y144923D01*
X115376Y144919D01*
X115287Y144893D01*
X115196Y144878D01*
X115121Y144846D01*
X115041Y144823D01*
X114961Y144778D01*
X114875Y144742D01*
X114809Y144693D01*
X114737Y144653D01*
X114669Y144591D01*
X114594Y144537D01*
X114540Y144474D01*
X114479Y144419D01*
X114426Y144343D01*
X114366Y144273D01*
X114309Y144173D01*
X114281Y144132D01*
X114270Y144104D01*
X114245Y144060D01*
X114164Y143886D01*
X110999Y142735D01*
X107948Y144159D01*
X106861Y147148D01*
X106858Y147154D01*
X106856Y147161D01*
X106780Y147310D01*
X106705Y147460D01*
X106701Y147465D01*
X106698Y147471D01*
X106590Y147598D01*
X106483Y147728D01*
X106477Y147732D01*
X106473Y147737D01*
X106339Y147837D01*
X106205Y147939D01*
X106199Y147941D01*
X106193Y147945D01*
X106040Y148012D01*
X105887Y148080D01*
X105880Y148082D01*
X105874Y148084D01*
X105709Y148115D01*
X105544Y148146D01*
X105538Y148146D01*
X105531Y148147D01*
X105363Y148139D01*
X105196Y148133D01*
X105190Y148131D01*
X105183Y148131D01*
X105022Y148085D01*
X104860Y148040D01*
X104854Y148037D01*
X104848Y148035D01*
X104701Y147954D01*
X104554Y147874D01*
X104549Y147869D01*
X104543Y147866D01*
X104417Y147752D01*
X104294Y147642D01*
X104290Y147637D01*
X104285Y147632D01*
X104188Y147493D01*
X104093Y147358D01*
X104090Y147351D01*
X104086Y147346D01*
X103989Y147121D01*
X103804Y146582D01*
X103750Y146544D01*
X103723Y146519D01*
X103718Y146515D01*
X103669Y146486D01*
X100540Y144251D01*
X96529Y144251D01*
X93401Y146486D01*
X93376Y146500D01*
X93367Y146509D01*
X93347Y146521D01*
X93320Y146544D01*
X92883Y146856D01*
X92790Y146908D01*
X92701Y146967D01*
X92638Y146992D01*
X92578Y147025D01*
X92476Y147054D01*
X92376Y147092D01*
X92308Y147101D01*
X92243Y147120D01*
X92136Y147125D01*
X92031Y147139D01*
X91963Y147133D01*
X91895Y147136D01*
X91790Y147117D01*
X91684Y147107D01*
X91619Y147085D01*
X91552Y147073D01*
X91454Y147030D01*
X91353Y146996D01*
X91295Y146961D01*
X91233Y146933D01*
X91147Y146870D01*
X91056Y146814D01*
X91008Y146766D01*
X90953Y146725D01*
X90884Y146643D01*
X90809Y146568D01*
X90758Y146494D01*
X90729Y146459D01*
X90711Y146424D01*
X90672Y146366D01*
X89815Y144850D01*
X86570Y143949D01*
X84537Y145098D01*
X84459Y145131D01*
X84384Y145174D01*
X84298Y145199D01*
X84216Y145234D01*
X84132Y145248D01*
X84050Y145273D01*
X83961Y145278D01*
X83873Y145293D01*
X83787Y145288D01*
X83702Y145293D01*
X83614Y145278D01*
X83525Y145273D01*
X83443Y145248D01*
X83359Y145234D01*
X83276Y145199D01*
X83191Y145174D01*
X83116Y145131D01*
X83038Y145098D01*
X82965Y145045D01*
X82888Y145001D01*
X82825Y144943D01*
X82756Y144893D01*
X82698Y144825D01*
X82632Y144764D01*
X82584Y144694D01*
X82528Y144629D01*
X82465Y144517D01*
X82437Y144476D01*
X82427Y144452D01*
X82407Y144416D01*
X82160Y143886D01*
X78995Y142735D01*
X75944Y144159D01*
X75497Y145388D01*
X75442Y145497D01*
X75395Y145611D01*
X75365Y145653D01*
X75341Y145700D01*
X75263Y145794D01*
X75192Y145893D01*
X75152Y145928D01*
X75119Y145968D01*
X75021Y146042D01*
X74929Y146123D01*
X74883Y146147D01*
X74841Y146179D01*
X74729Y146229D01*
X74621Y146286D01*
X74571Y146299D01*
X74523Y146321D01*
X74402Y146344D01*
X74284Y146375D01*
X74232Y146377D01*
X74180Y146387D01*
X74058Y146382D01*
X73936Y146385D01*
X73885Y146375D01*
X73832Y146373D01*
X73714Y146341D01*
X73594Y146316D01*
X73547Y146294D01*
X73496Y146281D01*
X73389Y146222D01*
X73277Y146171D01*
X73223Y146132D01*
X73190Y146114D01*
X73155Y146083D01*
X73079Y146028D01*
X72299Y145366D01*
X72270Y145334D01*
X72209Y145282D01*
X71110Y144183D01*
X71077Y144177D01*
X70977Y144131D01*
X70947Y144120D01*
X69391Y144246D01*
X69348Y144245D01*
X69268Y144251D01*
X61884Y144251D01*
X60806Y145330D01*
X60747Y145376D01*
X60695Y145430D01*
X60611Y145484D01*
X60533Y145546D01*
X60465Y145578D01*
X60402Y145619D01*
X60308Y145652D01*
X60218Y145695D01*
X60144Y145711D01*
X60073Y145736D01*
X59974Y145747D01*
X59877Y145768D01*
X59802Y145767D01*
X59727Y145776D01*
X59628Y145764D01*
X59528Y145762D01*
X59456Y145744D01*
X59381Y145735D01*
X59287Y145702D01*
X59190Y145677D01*
X59124Y145643D01*
X59053Y145618D01*
X58922Y145539D01*
X58881Y145518D01*
X58867Y145506D01*
X58843Y145492D01*
X57106Y144251D01*
X53096Y144251D01*
X51363Y145489D01*
X51352Y145495D01*
X51341Y145504D01*
X51199Y145580D01*
X51058Y145657D01*
X51045Y145661D01*
X51034Y145667D01*
X50878Y145709D01*
X50723Y145753D01*
X50710Y145753D01*
X50697Y145757D01*
X50536Y145761D01*
X50375Y145769D01*
X50362Y145767D01*
X50348Y145767D01*
X50191Y145735D01*
X50032Y145706D01*
X50020Y145700D01*
X50007Y145698D01*
X49860Y145631D01*
X49713Y145566D01*
X49702Y145558D01*
X49690Y145553D01*
X49491Y145410D01*
X49439Y145366D01*
X49410Y145334D01*
X49349Y145282D01*
X48250Y144183D01*
X48217Y144177D01*
X48117Y144131D01*
X48087Y144120D01*
X46531Y144246D01*
X46488Y144245D01*
X46408Y144251D01*
X39022Y144251D01*
X39013Y144258D01*
X38996Y144278D01*
X38876Y144367D01*
X38760Y144459D01*
X38736Y144470D01*
X38715Y144486D01*
X38579Y144544D01*
X38445Y144608D01*
X38419Y144613D01*
X38395Y144624D01*
X38249Y144650D01*
X38104Y144681D01*
X38078Y144681D01*
X38052Y144685D01*
X37904Y144678D01*
X37756Y144675D01*
X37730Y144669D01*
X37704Y144667D01*
X37562Y144626D01*
X37418Y144590D01*
X37395Y144578D01*
X37369Y144571D01*
X37240Y144498D01*
X37108Y144430D01*
X37088Y144413D01*
X37065Y144401D01*
X36879Y144242D01*
X36820Y144183D01*
X36787Y144177D01*
X36687Y144131D01*
X36657Y144120D01*
X35101Y144246D01*
X35058Y144245D01*
X34978Y144251D01*
X27594Y144251D01*
X25213Y146632D01*
X25213Y150000D01*
X25952Y150739D01*
X26005Y150806D01*
X26066Y150867D01*
X26113Y150942D01*
X26169Y151012D01*
X26205Y151089D01*
X26251Y151162D01*
X26280Y151246D01*
X26318Y151327D01*
X26336Y151411D01*
X26363Y151492D01*
X26372Y151581D01*
X26391Y151668D01*
X26390Y151753D01*
X26398Y151839D01*
X26387Y151927D01*
X26385Y152016D01*
X26364Y152099D01*
X26353Y152184D01*
X26312Y152306D01*
X26300Y152354D01*
X26288Y152377D01*
X26275Y152416D01*
X26255Y152464D01*
X26202Y152556D01*
X26158Y152652D01*
X26105Y152726D01*
X26082Y152767D01*
X26055Y152795D01*
X26015Y152851D01*
X25958Y152918D01*
X25955Y152943D01*
X25951Y153045D01*
X25932Y153115D01*
X25923Y153188D01*
X25872Y153338D01*
X25861Y153381D01*
X25853Y153396D01*
X25845Y153420D01*
X25525Y154168D01*
X25442Y154312D01*
X25360Y154458D01*
X25354Y154465D01*
X25351Y154470D01*
X25335Y154488D01*
X25213Y154631D01*
X25213Y158121D01*
X25634Y158851D01*
X25688Y158975D01*
X25748Y159096D01*
X25757Y159134D01*
X25773Y159170D01*
X25797Y159303D01*
X25828Y159435D01*
X25828Y159475D01*
X25835Y159513D01*
X25828Y159648D01*
X25829Y159784D01*
X25820Y159822D01*
X25818Y159861D01*
X25780Y159992D01*
X25750Y160123D01*
X25733Y160158D01*
X25722Y160196D01*
X25656Y160315D01*
X25596Y160436D01*
X25571Y160466D01*
X25552Y160501D01*
X25461Y160601D01*
X25376Y160706D01*
X25344Y160730D01*
X25318Y160759D01*
X25206Y160836D01*
X25099Y160918D01*
X25063Y160934D01*
X25031Y160957D01*
X24905Y161006D01*
X24782Y161062D01*
X24743Y161070D01*
X24707Y161084D01*
X24572Y161104D01*
X24440Y161130D01*
X24392Y161130D01*
X24362Y161135D01*
X24312Y161130D01*
X24196Y161131D01*
X21804Y160942D01*
X21748Y160931D01*
X21691Y160929D01*
X21480Y160879D01*
X21462Y160876D01*
X21458Y160874D01*
X21453Y160873D01*
X15601Y158971D01*
X15495Y158923D01*
X15385Y158882D01*
X15322Y158843D01*
X15284Y158826D01*
X15249Y158799D01*
X15176Y158755D01*
X10199Y155138D01*
X10113Y155059D01*
X10021Y154987D01*
X9972Y154930D01*
X9942Y154903D01*
X9917Y154866D01*
X9862Y154801D01*
X6245Y149824D01*
X6188Y149722D01*
X6123Y149625D01*
X6094Y149556D01*
X6074Y149520D01*
X6061Y149477D01*
X6029Y149399D01*
X4127Y143547D01*
X4116Y143491D01*
X4096Y143437D01*
X4062Y143224D01*
X4058Y143206D01*
X4058Y143202D01*
X4058Y143196D01*
X3815Y140120D01*
X3817Y140077D01*
X3811Y140000D01*
X3811Y124375D01*
X3814Y124349D01*
X3812Y124324D01*
X3834Y124176D01*
X3851Y124028D01*
X3859Y124004D01*
X3863Y123979D01*
X3918Y123840D01*
X3968Y123700D01*
X3982Y123679D01*
X3991Y123655D01*
X4076Y123533D01*
X4157Y123408D01*
X4175Y123390D01*
X4190Y123369D01*
X4301Y123269D01*
X4408Y123165D01*
X4430Y123152D01*
X4449Y123135D01*
X4579Y123063D01*
X4707Y122987D01*
X4731Y122979D01*
X4754Y122966D01*
X4897Y122926D01*
X5039Y122880D01*
X5064Y122878D01*
X5089Y122871D01*
X5238Y122864D01*
X5386Y122852D01*
X5411Y122856D01*
X5437Y122855D01*
X5583Y122882D01*
X5731Y122904D01*
X5755Y122914D01*
X5780Y122918D01*
X5916Y122978D01*
X6055Y123033D01*
X6076Y123047D01*
X6099Y123058D01*
X6219Y123147D01*
X6341Y123232D01*
X6358Y123251D01*
X6378Y123266D01*
X6542Y123447D01*
X7538Y124744D01*
X7538Y124745D01*
X7711Y124970D01*
X9530Y126789D01*
X11571Y128356D01*
X13800Y129642D01*
X16177Y130627D01*
X18662Y131293D01*
X19453Y131397D01*
X19453Y113524D01*
X19456Y113498D01*
X19454Y113472D01*
X19476Y113325D01*
X19493Y113178D01*
X19501Y113153D01*
X19505Y113127D01*
X19560Y112989D01*
X19610Y112850D01*
X19624Y112828D01*
X19634Y112803D01*
X19719Y112682D01*
X19799Y112557D01*
X19818Y112539D01*
X19833Y112517D01*
X19943Y112418D01*
X20050Y112315D01*
X20072Y112301D01*
X20092Y112284D01*
X20222Y112212D01*
X20349Y112136D01*
X20374Y112128D01*
X20397Y112115D01*
X20540Y112075D01*
X20681Y112030D01*
X20707Y112028D01*
X20732Y112021D01*
X20976Y112001D01*
X22501Y112001D01*
X22501Y111999D01*
X20976Y111999D01*
X20950Y111996D01*
X20924Y111998D01*
X20777Y111976D01*
X20630Y111959D01*
X20605Y111950D01*
X20579Y111947D01*
X20441Y111892D01*
X20302Y111842D01*
X20280Y111827D01*
X20255Y111818D01*
X20134Y111733D01*
X20009Y111653D01*
X19991Y111634D01*
X19969Y111619D01*
X19870Y111509D01*
X19767Y111402D01*
X19753Y111380D01*
X19736Y111360D01*
X19664Y111230D01*
X19588Y111103D01*
X19580Y111078D01*
X19567Y111055D01*
X19527Y110912D01*
X19482Y110771D01*
X19480Y110745D01*
X19472Y110720D01*
X19453Y110476D01*
X19453Y92603D01*
X18662Y92707D01*
X16177Y93373D01*
X13800Y94358D01*
X11571Y95644D01*
X9530Y97211D01*
X7711Y99030D01*
X6542Y100553D01*
X6525Y100571D01*
X6511Y100592D01*
X6403Y100696D01*
X6300Y100803D01*
X6279Y100817D01*
X6260Y100835D01*
X6132Y100911D01*
X6007Y100992D01*
X5983Y101000D01*
X5961Y101013D01*
X5820Y101059D01*
X5679Y101109D01*
X5654Y101112D01*
X5629Y101120D01*
X5481Y101132D01*
X5333Y101149D01*
X5307Y101146D01*
X5282Y101148D01*
X5134Y101126D01*
X4986Y101108D01*
X4962Y101100D01*
X4937Y101096D01*
X4799Y101041D01*
X4658Y100991D01*
X4637Y100977D01*
X4613Y100967D01*
X4491Y100882D01*
X4366Y100801D01*
X4348Y100783D01*
X4327Y100768D01*
X4228Y100658D01*
X4124Y100550D01*
X4111Y100528D01*
X4094Y100510D01*
X4022Y100379D01*
X3945Y100251D01*
X3938Y100227D01*
X3925Y100204D01*
X3885Y100061D01*
X3839Y99919D01*
X3837Y99894D01*
X3830Y99869D01*
X3811Y99625D01*
X3811Y5334D01*
X3814Y5308D01*
X3812Y5282D01*
X3834Y5135D01*
X3851Y4988D01*
X3859Y4963D01*
X3863Y4937D01*
X3918Y4799D01*
X3968Y4660D01*
X3982Y4638D01*
X3992Y4613D01*
X4077Y4492D01*
X4157Y4367D01*
X4176Y4349D01*
X4191Y4327D01*
X4301Y4228D01*
X4408Y4125D01*
X4430Y4111D01*
X4450Y4094D01*
X4580Y4022D01*
X4707Y3946D01*
X4732Y3938D01*
X4755Y3925D01*
X4898Y3885D01*
X5039Y3840D01*
X5065Y3838D01*
X5090Y3830D01*
X5334Y3811D01*
X184666Y3811D01*
X184692Y3814D01*
G37*
%LPC*%
G36*
X36237Y8201D02*
X36237Y8201D01*
X34451Y9987D01*
X34451Y23489D01*
X34451Y23491D01*
X34451Y23493D01*
X34431Y23665D01*
X34411Y23835D01*
X34411Y68112D01*
X35262Y70166D01*
X37048Y71952D01*
X44755Y79659D01*
X44834Y79758D01*
X44918Y79852D01*
X44942Y79894D01*
X44972Y79932D01*
X45026Y80046D01*
X45087Y80157D01*
X45100Y80203D01*
X45121Y80247D01*
X45147Y80370D01*
X45182Y80492D01*
X45187Y80553D01*
X45194Y80588D01*
X45193Y80636D01*
X45201Y80736D01*
X45201Y83949D01*
X46693Y87551D01*
X49449Y90307D01*
X53051Y91799D01*
X56949Y91799D01*
X60551Y90307D01*
X63307Y87551D01*
X64799Y83949D01*
X64799Y80051D01*
X63307Y76449D01*
X60551Y73693D01*
X56949Y72201D01*
X53736Y72201D01*
X53610Y72187D01*
X53484Y72180D01*
X53438Y72167D01*
X53390Y72161D01*
X53271Y72119D01*
X53149Y72084D01*
X53107Y72060D01*
X53062Y72044D01*
X52955Y71975D01*
X52845Y71914D01*
X52799Y71874D01*
X52769Y71855D01*
X52735Y71820D01*
X52659Y71755D01*
X49335Y68432D01*
X49304Y68392D01*
X49267Y68358D01*
X49196Y68256D01*
X49119Y68159D01*
X49097Y68113D01*
X49069Y68072D01*
X49023Y67956D01*
X48970Y67844D01*
X48959Y67794D01*
X48941Y67747D01*
X48923Y67624D01*
X48896Y67503D01*
X48897Y67453D01*
X48890Y67403D01*
X48900Y67278D01*
X48902Y67154D01*
X48915Y67106D01*
X48919Y67055D01*
X48957Y66937D01*
X48987Y66816D01*
X49010Y66772D01*
X49026Y66724D01*
X49090Y66617D01*
X49147Y66507D01*
X49180Y66468D01*
X49206Y66425D01*
X49292Y66336D01*
X49373Y66241D01*
X49413Y66211D01*
X49448Y66175D01*
X49553Y66108D01*
X49653Y66034D01*
X49699Y66014D01*
X49742Y65987D01*
X49859Y65945D01*
X49973Y65896D01*
X50023Y65887D01*
X50070Y65870D01*
X50194Y65856D01*
X50316Y65834D01*
X50367Y65837D01*
X50417Y65831D01*
X50540Y65846D01*
X50664Y65852D01*
X50713Y65866D01*
X50763Y65872D01*
X50995Y65947D01*
X50999Y65949D01*
X53051Y66799D01*
X56949Y66799D01*
X60551Y65307D01*
X63307Y62551D01*
X63593Y61861D01*
X63641Y61773D01*
X63681Y61681D01*
X63726Y61621D01*
X63762Y61556D01*
X63829Y61482D01*
X63889Y61401D01*
X63946Y61353D01*
X63996Y61298D01*
X64079Y61241D01*
X64155Y61176D01*
X64221Y61142D01*
X64283Y61100D01*
X64376Y61063D01*
X64466Y61017D01*
X64538Y60999D01*
X64607Y60972D01*
X64706Y60957D01*
X64804Y60933D01*
X64878Y60932D01*
X64952Y60921D01*
X65052Y60929D01*
X65152Y60928D01*
X65225Y60944D01*
X65299Y60950D01*
X65395Y60981D01*
X65493Y61002D01*
X65560Y61034D01*
X65631Y61057D01*
X65717Y61109D01*
X65808Y61152D01*
X65865Y61198D01*
X65929Y61237D01*
X66002Y61307D01*
X66080Y61369D01*
X66126Y61428D01*
X66179Y61480D01*
X66234Y61564D01*
X66296Y61643D01*
X66342Y61732D01*
X66368Y61773D01*
X66380Y61806D01*
X66407Y61861D01*
X66693Y62551D01*
X69449Y65307D01*
X73051Y66799D01*
X76949Y66799D01*
X80551Y65307D01*
X83307Y62551D01*
X83593Y61861D01*
X83641Y61773D01*
X83681Y61681D01*
X83726Y61621D01*
X83762Y61556D01*
X83829Y61482D01*
X83889Y61401D01*
X83946Y61353D01*
X83996Y61298D01*
X84079Y61241D01*
X84155Y61176D01*
X84221Y61142D01*
X84283Y61100D01*
X84376Y61063D01*
X84466Y61017D01*
X84538Y60999D01*
X84607Y60972D01*
X84706Y60957D01*
X84804Y60933D01*
X84878Y60932D01*
X84952Y60921D01*
X85052Y60929D01*
X85152Y60928D01*
X85225Y60944D01*
X85299Y60950D01*
X85395Y60981D01*
X85493Y61002D01*
X85560Y61034D01*
X85631Y61057D01*
X85717Y61109D01*
X85808Y61152D01*
X85865Y61198D01*
X85929Y61237D01*
X86002Y61307D01*
X86080Y61369D01*
X86126Y61428D01*
X86179Y61480D01*
X86234Y61564D01*
X86296Y61643D01*
X86342Y61732D01*
X86368Y61773D01*
X86380Y61806D01*
X86407Y61861D01*
X86693Y62551D01*
X89449Y65307D01*
X93051Y66799D01*
X96949Y66799D01*
X100551Y65307D01*
X103307Y62551D01*
X103593Y61861D01*
X103642Y61773D01*
X103682Y61681D01*
X103726Y61621D01*
X103762Y61556D01*
X103830Y61482D01*
X103889Y61401D01*
X103946Y61353D01*
X103996Y61298D01*
X104079Y61241D01*
X104155Y61176D01*
X104222Y61142D01*
X104283Y61100D01*
X104376Y61063D01*
X104466Y61017D01*
X104538Y60999D01*
X104607Y60972D01*
X104707Y60957D01*
X104804Y60933D01*
X104878Y60932D01*
X104952Y60921D01*
X105052Y60929D01*
X105152Y60928D01*
X105225Y60944D01*
X105299Y60950D01*
X105395Y60981D01*
X105493Y61002D01*
X105560Y61034D01*
X105631Y61057D01*
X105717Y61109D01*
X105808Y61152D01*
X105866Y61198D01*
X105929Y61237D01*
X106002Y61307D01*
X106080Y61369D01*
X106126Y61428D01*
X106179Y61480D01*
X106234Y61564D01*
X106296Y61643D01*
X106342Y61732D01*
X106368Y61773D01*
X106380Y61807D01*
X106407Y61861D01*
X106693Y62551D01*
X109449Y65307D01*
X113051Y66799D01*
X116949Y66799D01*
X120551Y65307D01*
X123307Y62551D01*
X123593Y61861D01*
X123642Y61773D01*
X123682Y61681D01*
X123726Y61621D01*
X123762Y61556D01*
X123830Y61482D01*
X123889Y61401D01*
X123946Y61353D01*
X123996Y61298D01*
X124079Y61241D01*
X124155Y61176D01*
X124222Y61142D01*
X124283Y61100D01*
X124376Y61063D01*
X124466Y61017D01*
X124538Y60999D01*
X124607Y60972D01*
X124707Y60957D01*
X124804Y60933D01*
X124878Y60932D01*
X124952Y60921D01*
X125052Y60929D01*
X125152Y60928D01*
X125225Y60944D01*
X125299Y60950D01*
X125395Y60981D01*
X125493Y61002D01*
X125560Y61034D01*
X125631Y61057D01*
X125717Y61109D01*
X125808Y61152D01*
X125866Y61198D01*
X125929Y61237D01*
X126002Y61307D01*
X126080Y61369D01*
X126126Y61428D01*
X126179Y61480D01*
X126234Y61564D01*
X126296Y61643D01*
X126342Y61732D01*
X126368Y61773D01*
X126380Y61807D01*
X126407Y61861D01*
X126693Y62551D01*
X129449Y65307D01*
X133051Y66799D01*
X136949Y66799D01*
X140551Y65307D01*
X143307Y62551D01*
X144799Y58949D01*
X144799Y55051D01*
X143307Y51449D01*
X140551Y48693D01*
X136949Y47201D01*
X133051Y47201D01*
X129449Y48693D01*
X126693Y51449D01*
X126407Y52139D01*
X126359Y52227D01*
X126319Y52319D01*
X126274Y52379D01*
X126238Y52444D01*
X126171Y52518D01*
X126111Y52599D01*
X126054Y52647D01*
X126004Y52702D01*
X125921Y52759D01*
X125845Y52824D01*
X125779Y52858D01*
X125717Y52900D01*
X125624Y52937D01*
X125534Y52983D01*
X125462Y53001D01*
X125393Y53028D01*
X125294Y53043D01*
X125196Y53067D01*
X125122Y53068D01*
X125048Y53079D01*
X124948Y53071D01*
X124848Y53072D01*
X124775Y53056D01*
X124701Y53050D01*
X124605Y53019D01*
X124507Y52998D01*
X124440Y52966D01*
X124369Y52943D01*
X124283Y52891D01*
X124192Y52848D01*
X124135Y52802D01*
X124071Y52763D01*
X123998Y52693D01*
X123920Y52631D01*
X123874Y52572D01*
X123821Y52520D01*
X123766Y52436D01*
X123704Y52357D01*
X123658Y52268D01*
X123632Y52227D01*
X123620Y52194D01*
X123593Y52139D01*
X123307Y51449D01*
X120551Y48693D01*
X116949Y47201D01*
X113051Y47201D01*
X109449Y48693D01*
X106693Y51449D01*
X106407Y52139D01*
X106359Y52227D01*
X106319Y52319D01*
X106274Y52379D01*
X106238Y52444D01*
X106171Y52518D01*
X106111Y52599D01*
X106054Y52647D01*
X106004Y52702D01*
X105921Y52759D01*
X105845Y52824D01*
X105779Y52858D01*
X105717Y52900D01*
X105624Y52937D01*
X105534Y52983D01*
X105462Y53001D01*
X105393Y53028D01*
X105294Y53043D01*
X105196Y53067D01*
X105122Y53068D01*
X105048Y53079D01*
X104948Y53071D01*
X104848Y53072D01*
X104775Y53056D01*
X104701Y53050D01*
X104605Y53019D01*
X104507Y52998D01*
X104440Y52966D01*
X104369Y52943D01*
X104283Y52891D01*
X104192Y52848D01*
X104135Y52802D01*
X104071Y52763D01*
X103998Y52693D01*
X103920Y52631D01*
X103874Y52572D01*
X103821Y52520D01*
X103766Y52436D01*
X103704Y52357D01*
X103658Y52268D01*
X103632Y52227D01*
X103620Y52194D01*
X103593Y52139D01*
X103307Y51449D01*
X100551Y48693D01*
X96949Y47201D01*
X93051Y47201D01*
X89449Y48693D01*
X86693Y51449D01*
X86407Y52139D01*
X86358Y52227D01*
X86318Y52319D01*
X86274Y52379D01*
X86238Y52444D01*
X86170Y52518D01*
X86111Y52599D01*
X86054Y52647D01*
X86004Y52702D01*
X85921Y52759D01*
X85845Y52824D01*
X85778Y52858D01*
X85717Y52900D01*
X85624Y52937D01*
X85534Y52983D01*
X85462Y53001D01*
X85393Y53028D01*
X85293Y53043D01*
X85196Y53067D01*
X85122Y53068D01*
X85048Y53079D01*
X84948Y53071D01*
X84848Y53072D01*
X84775Y53056D01*
X84701Y53050D01*
X84605Y53019D01*
X84507Y52998D01*
X84440Y52966D01*
X84369Y52943D01*
X84283Y52891D01*
X84192Y52848D01*
X84134Y52802D01*
X84071Y52763D01*
X83998Y52693D01*
X83920Y52631D01*
X83874Y52572D01*
X83821Y52520D01*
X83766Y52436D01*
X83704Y52357D01*
X83658Y52268D01*
X83632Y52227D01*
X83620Y52193D01*
X83593Y52139D01*
X83307Y51449D01*
X81035Y49177D01*
X80956Y49078D01*
X80872Y48985D01*
X80848Y48942D01*
X80818Y48904D01*
X80764Y48790D01*
X80703Y48679D01*
X80690Y48633D01*
X80669Y48589D01*
X80643Y48466D01*
X80608Y48344D01*
X80603Y48283D01*
X80596Y48249D01*
X80597Y48201D01*
X80589Y48100D01*
X80589Y23806D01*
X80569Y23737D01*
X80569Y23735D01*
X80568Y23733D01*
X80549Y23489D01*
X80549Y9987D01*
X78763Y8201D01*
X66237Y8201D01*
X66077Y8361D01*
X66057Y8378D01*
X66040Y8398D01*
X65920Y8486D01*
X65804Y8578D01*
X65780Y8589D01*
X65759Y8605D01*
X65623Y8663D01*
X65489Y8727D01*
X65463Y8732D01*
X65439Y8743D01*
X65293Y8769D01*
X65148Y8800D01*
X65122Y8800D01*
X65096Y8804D01*
X64948Y8797D01*
X64800Y8794D01*
X64774Y8788D01*
X64748Y8787D01*
X64606Y8745D01*
X64462Y8709D01*
X64438Y8697D01*
X64413Y8690D01*
X64284Y8618D01*
X64152Y8550D01*
X64132Y8533D01*
X64109Y8520D01*
X63923Y8361D01*
X63763Y8201D01*
X51237Y8201D01*
X51077Y8361D01*
X51057Y8378D01*
X51040Y8398D01*
X50920Y8486D01*
X50804Y8578D01*
X50780Y8589D01*
X50759Y8605D01*
X50623Y8663D01*
X50489Y8727D01*
X50463Y8732D01*
X50439Y8743D01*
X50293Y8769D01*
X50148Y8800D01*
X50122Y8800D01*
X50096Y8804D01*
X49948Y8797D01*
X49800Y8794D01*
X49774Y8788D01*
X49748Y8787D01*
X49606Y8745D01*
X49462Y8709D01*
X49439Y8697D01*
X49413Y8690D01*
X49284Y8618D01*
X49152Y8550D01*
X49132Y8533D01*
X49109Y8520D01*
X48923Y8361D01*
X48763Y8201D01*
X36237Y8201D01*
G37*
%LPD*%
%LPC*%
G36*
X86051Y72201D02*
X86051Y72201D01*
X82449Y73693D01*
X79693Y76449D01*
X78201Y80051D01*
X78201Y83949D01*
X79693Y87551D01*
X82449Y90307D01*
X86051Y91799D01*
X89949Y91799D01*
X93551Y90307D01*
X96307Y87551D01*
X96593Y86861D01*
X96642Y86773D01*
X96682Y86681D01*
X96726Y86621D01*
X96762Y86556D01*
X96830Y86482D01*
X96889Y86401D01*
X96946Y86353D01*
X96996Y86298D01*
X97079Y86241D01*
X97155Y86176D01*
X97222Y86142D01*
X97283Y86100D01*
X97376Y86063D01*
X97466Y86017D01*
X97538Y85999D01*
X97607Y85972D01*
X97707Y85957D01*
X97804Y85933D01*
X97878Y85932D01*
X97952Y85921D01*
X98052Y85929D01*
X98152Y85928D01*
X98225Y85944D01*
X98299Y85950D01*
X98395Y85981D01*
X98493Y86002D01*
X98560Y86034D01*
X98631Y86057D01*
X98717Y86109D01*
X98808Y86152D01*
X98866Y86199D01*
X98929Y86237D01*
X99001Y86307D01*
X99080Y86369D01*
X99126Y86428D01*
X99179Y86480D01*
X99234Y86564D01*
X99296Y86643D01*
X99342Y86732D01*
X99368Y86773D01*
X99380Y86807D01*
X99407Y86861D01*
X99693Y87551D01*
X102449Y90307D01*
X106051Y91799D01*
X109949Y91799D01*
X113551Y90307D01*
X116307Y87551D01*
X117799Y83949D01*
X117799Y80051D01*
X116307Y76449D01*
X113551Y73693D01*
X109949Y72201D01*
X106051Y72201D01*
X102449Y73693D01*
X99693Y76449D01*
X99407Y77139D01*
X99359Y77227D01*
X99319Y77319D01*
X99274Y77379D01*
X99238Y77444D01*
X99171Y77518D01*
X99111Y77599D01*
X99054Y77647D01*
X99004Y77702D01*
X98921Y77759D01*
X98845Y77824D01*
X98778Y77858D01*
X98717Y77900D01*
X98624Y77937D01*
X98534Y77983D01*
X98462Y78001D01*
X98393Y78028D01*
X98294Y78043D01*
X98196Y78067D01*
X98122Y78068D01*
X98048Y78079D01*
X97948Y78071D01*
X97848Y78072D01*
X97775Y78056D01*
X97701Y78050D01*
X97605Y78019D01*
X97507Y77998D01*
X97440Y77966D01*
X97369Y77943D01*
X97283Y77891D01*
X97192Y77848D01*
X97134Y77801D01*
X97071Y77763D01*
X96999Y77693D01*
X96920Y77631D01*
X96874Y77572D01*
X96821Y77520D01*
X96766Y77436D01*
X96704Y77357D01*
X96658Y77267D01*
X96632Y77227D01*
X96621Y77194D01*
X96593Y77139D01*
X96307Y76449D01*
X93551Y73693D01*
X89949Y72201D01*
X86051Y72201D01*
G37*
%LPD*%
%LPC*%
G36*
X133051Y72201D02*
X133051Y72201D01*
X129449Y73693D01*
X126693Y76449D01*
X125201Y80051D01*
X125201Y83949D01*
X126693Y87551D01*
X129449Y90307D01*
X133051Y91799D01*
X136949Y91799D01*
X140551Y90307D01*
X143307Y87551D01*
X144799Y83949D01*
X144799Y80051D01*
X143307Y76449D01*
X140551Y73693D01*
X136949Y72201D01*
X133051Y72201D01*
G37*
%LPD*%
%LPC*%
G36*
X98047Y123047D02*
X98047Y123047D01*
X98047Y139397D01*
X98838Y139293D01*
X101323Y138627D01*
X103700Y137642D01*
X105929Y136356D01*
X107970Y134789D01*
X109789Y132970D01*
X111356Y130929D01*
X112642Y128700D01*
X113627Y126323D01*
X114293Y123838D01*
X114397Y123047D01*
X98047Y123047D01*
G37*
%LPD*%
%LPC*%
G36*
X25547Y115047D02*
X25547Y115047D01*
X25547Y131397D01*
X26338Y131293D01*
X28823Y130627D01*
X31200Y129642D01*
X33429Y128356D01*
X35470Y126789D01*
X37289Y124970D01*
X38856Y122929D01*
X40142Y120700D01*
X41127Y118323D01*
X41793Y115838D01*
X41897Y115047D01*
X25547Y115047D01*
G37*
%LPD*%
%LPC*%
G36*
X75603Y123047D02*
X75603Y123047D01*
X75707Y123838D01*
X76373Y126323D01*
X77358Y128700D01*
X78644Y130929D01*
X79743Y132361D01*
X80211Y132970D01*
X82030Y134789D01*
X84071Y136356D01*
X86300Y137642D01*
X88677Y138627D01*
X91162Y139293D01*
X91953Y139397D01*
X91953Y123047D01*
X75603Y123047D01*
G37*
%LPD*%
%LPC*%
G36*
X98047Y116953D02*
X98047Y116953D01*
X114397Y116953D01*
X114293Y116162D01*
X113627Y113677D01*
X112642Y111300D01*
X111356Y109071D01*
X110778Y108318D01*
X110777Y108318D01*
X109789Y107030D01*
X107970Y105211D01*
X105929Y103644D01*
X103700Y102358D01*
X101323Y101373D01*
X98838Y100707D01*
X98047Y100603D01*
X98047Y116953D01*
G37*
%LPD*%
%LPC*%
G36*
X25547Y108953D02*
X25547Y108953D01*
X41897Y108953D01*
X41793Y108162D01*
X41127Y105677D01*
X40142Y103300D01*
X38856Y101071D01*
X38572Y100702D01*
X37403Y99179D01*
X37403Y99178D01*
X37289Y99030D01*
X35470Y97211D01*
X33429Y95644D01*
X31200Y94358D01*
X28823Y93373D01*
X26338Y92707D01*
X25547Y92603D01*
X25547Y108953D01*
G37*
%LPD*%
%LPC*%
G36*
X148103Y115047D02*
X148103Y115047D01*
X148207Y115838D01*
X148873Y118323D01*
X149858Y120700D01*
X151144Y122929D01*
X151369Y123221D01*
X152538Y124744D01*
X152538Y124745D01*
X152711Y124970D01*
X154530Y126789D01*
X156571Y128356D01*
X158800Y129642D01*
X161177Y130627D01*
X163662Y131293D01*
X164453Y131397D01*
X164453Y115047D01*
X148103Y115047D01*
G37*
%LPD*%
%LPC*%
G36*
X91162Y100707D02*
X91162Y100707D01*
X88677Y101373D01*
X86300Y102358D01*
X84071Y103644D01*
X82030Y105211D01*
X80211Y107030D01*
X78644Y109071D01*
X77358Y111300D01*
X76373Y113677D01*
X75707Y116162D01*
X75603Y116953D01*
X91953Y116953D01*
X91953Y100603D01*
X91162Y100707D01*
G37*
%LPD*%
%LPC*%
G36*
X163662Y92707D02*
X163662Y92707D01*
X161177Y93373D01*
X158800Y94358D01*
X156571Y95644D01*
X154530Y97211D01*
X152711Y99030D01*
X151144Y101071D01*
X149858Y103300D01*
X148873Y105677D01*
X148207Y108162D01*
X148103Y108953D01*
X164453Y108953D01*
X164453Y92603D01*
X163662Y92707D01*
G37*
%LPD*%
%LPC*%
G36*
X94999Y119999D02*
X94999Y119999D01*
X94999Y120001D01*
X95001Y120001D01*
X95001Y119999D01*
X94999Y119999D01*
G37*
%LPD*%
D10*
X160722Y155428D02*
X158352Y148316D01*
X155981Y155428D01*
X151028Y156613D02*
X148065Y158984D01*
X148065Y148316D01*
X151028Y148316D02*
X145101Y148316D01*
X130242Y158984D02*
X130140Y158982D01*
X130038Y158976D01*
X129936Y158966D01*
X129835Y158953D01*
X129734Y158935D01*
X129634Y158914D01*
X129535Y158889D01*
X129437Y158860D01*
X129340Y158827D01*
X129245Y158791D01*
X129151Y158751D01*
X129059Y158707D01*
X128968Y158660D01*
X128879Y158609D01*
X128792Y158556D01*
X128708Y158498D01*
X128625Y158438D01*
X128545Y158375D01*
X128468Y158308D01*
X128393Y158239D01*
X128320Y158166D01*
X128251Y158091D01*
X128184Y158014D01*
X128121Y157934D01*
X128061Y157851D01*
X128003Y157767D01*
X127950Y157680D01*
X127899Y157591D01*
X127852Y157500D01*
X127808Y157408D01*
X127768Y157314D01*
X127732Y157218D01*
X127699Y157122D01*
X127670Y157024D01*
X127645Y156925D01*
X127624Y156825D01*
X127606Y156724D01*
X127593Y156623D01*
X127583Y156521D01*
X127577Y156419D01*
X127575Y156317D01*
X130242Y158984D02*
X130358Y158982D01*
X130475Y158976D01*
X130591Y158966D01*
X130706Y158952D01*
X130821Y158935D01*
X130936Y158913D01*
X131049Y158887D01*
X131162Y158858D01*
X131274Y158825D01*
X131384Y158788D01*
X131493Y158747D01*
X131601Y158703D01*
X131707Y158655D01*
X131811Y158603D01*
X131914Y158548D01*
X132015Y158490D01*
X132113Y158428D01*
X132210Y158363D01*
X132304Y158294D01*
X132396Y158222D01*
X132485Y158148D01*
X132572Y158070D01*
X132656Y157989D01*
X132737Y157906D01*
X132815Y157820D01*
X132891Y157731D01*
X132963Y157640D01*
X133032Y157546D01*
X133098Y157450D01*
X133161Y157352D01*
X133220Y157252D01*
X133276Y157150D01*
X133328Y157046D01*
X133377Y156940D01*
X133422Y156832D01*
X133464Y156724D01*
X133501Y156613D01*
X128464Y154242D02*
X128389Y154316D01*
X128317Y154393D01*
X128248Y154473D01*
X128181Y154555D01*
X128118Y154639D01*
X128058Y154726D01*
X128001Y154814D01*
X127947Y154905D01*
X127897Y154998D01*
X127850Y155092D01*
X127807Y155188D01*
X127767Y155286D01*
X127731Y155385D01*
X127698Y155485D01*
X127670Y155587D01*
X127645Y155689D01*
X127623Y155793D01*
X127606Y155897D01*
X127592Y156001D01*
X127583Y156106D01*
X127577Y156212D01*
X127575Y156317D01*
X128464Y154243D02*
X133502Y148316D01*
X127575Y148316D01*
X122072Y148316D02*
X119109Y148316D01*
X119002Y148318D01*
X118895Y148324D01*
X118789Y148333D01*
X118683Y148347D01*
X118577Y148364D01*
X118472Y148385D01*
X118368Y148410D01*
X118265Y148439D01*
X118163Y148471D01*
X118062Y148507D01*
X117963Y148547D01*
X117865Y148590D01*
X117769Y148637D01*
X117674Y148687D01*
X117581Y148740D01*
X117491Y148797D01*
X117402Y148857D01*
X117316Y148920D01*
X117232Y148986D01*
X117150Y149056D01*
X117071Y149128D01*
X116995Y149203D01*
X116921Y149281D01*
X116851Y149361D01*
X116783Y149444D01*
X116718Y149529D01*
X116657Y149616D01*
X116598Y149706D01*
X116543Y149798D01*
X116491Y149891D01*
X116443Y149987D01*
X116398Y150084D01*
X116356Y150182D01*
X116319Y150282D01*
X116284Y150384D01*
X116254Y150486D01*
X116227Y150590D01*
X116204Y150694D01*
X116185Y150800D01*
X116170Y150906D01*
X116158Y151012D01*
X116150Y151119D01*
X116146Y151226D01*
X116146Y151332D01*
X116150Y151439D01*
X116158Y151546D01*
X116170Y151652D01*
X116185Y151758D01*
X116204Y151864D01*
X116227Y151968D01*
X116254Y152072D01*
X116284Y152174D01*
X116319Y152276D01*
X116356Y152376D01*
X116398Y152474D01*
X116443Y152571D01*
X116491Y152667D01*
X116543Y152761D01*
X116598Y152852D01*
X116657Y152942D01*
X116718Y153029D01*
X116783Y153114D01*
X116851Y153197D01*
X116921Y153277D01*
X116995Y153355D01*
X117071Y153430D01*
X117150Y153502D01*
X117232Y153572D01*
X117316Y153638D01*
X117402Y153701D01*
X117491Y153761D01*
X117581Y153818D01*
X117674Y153871D01*
X117769Y153921D01*
X117865Y153968D01*
X117963Y154011D01*
X118062Y154051D01*
X118163Y154087D01*
X118265Y154119D01*
X118368Y154148D01*
X118472Y154173D01*
X118577Y154194D01*
X118683Y154211D01*
X118789Y154225D01*
X118895Y154234D01*
X119002Y154240D01*
X119109Y154242D01*
X118516Y158984D02*
X122072Y158984D01*
X118516Y158984D02*
X118419Y158982D01*
X118323Y158976D01*
X118227Y158966D01*
X118131Y158952D01*
X118036Y158935D01*
X117941Y158913D01*
X117848Y158888D01*
X117756Y158859D01*
X117665Y158826D01*
X117575Y158789D01*
X117487Y158749D01*
X117401Y158705D01*
X117317Y158658D01*
X117234Y158608D01*
X117154Y158554D01*
X117076Y158496D01*
X117000Y158436D01*
X116927Y158373D01*
X116857Y158307D01*
X116789Y158237D01*
X116724Y158166D01*
X116662Y158091D01*
X116604Y158014D01*
X116548Y157935D01*
X116496Y157854D01*
X116447Y157770D01*
X116401Y157685D01*
X116359Y157598D01*
X116321Y157509D01*
X116286Y157419D01*
X116255Y157327D01*
X116228Y157234D01*
X116204Y157141D01*
X116185Y157046D01*
X116169Y156950D01*
X116157Y156854D01*
X116149Y156758D01*
X116145Y156661D01*
X116145Y156565D01*
X116149Y156468D01*
X116157Y156372D01*
X116169Y156276D01*
X116185Y156180D01*
X116204Y156085D01*
X116228Y155992D01*
X116255Y155899D01*
X116286Y155807D01*
X116321Y155717D01*
X116359Y155628D01*
X116401Y155541D01*
X116447Y155456D01*
X116496Y155372D01*
X116548Y155291D01*
X116604Y155212D01*
X116662Y155135D01*
X116724Y155060D01*
X116789Y154989D01*
X116857Y154919D01*
X116927Y154853D01*
X117000Y154790D01*
X117076Y154730D01*
X117154Y154672D01*
X117234Y154618D01*
X117317Y154568D01*
X117401Y154521D01*
X117487Y154477D01*
X117575Y154437D01*
X117665Y154400D01*
X117756Y154367D01*
X117848Y154338D01*
X117941Y154313D01*
X118036Y154291D01*
X118131Y154274D01*
X118227Y154260D01*
X118323Y154250D01*
X118419Y154244D01*
X118516Y154242D01*
X118516Y154243D02*
X120887Y154243D01*
X111192Y147131D02*
X106451Y160169D01*
X100609Y157502D02*
X100699Y157313D01*
X100784Y157121D01*
X100864Y156927D01*
X100940Y156731D01*
X101012Y156534D01*
X101078Y156335D01*
X101140Y156134D01*
X101197Y155932D01*
X101249Y155729D01*
X101296Y155524D01*
X101338Y155319D01*
X101376Y155112D01*
X101408Y154905D01*
X101435Y154697D01*
X101458Y154488D01*
X101475Y154279D01*
X101488Y154070D01*
X101495Y153860D01*
X101498Y153650D01*
X100609Y157502D02*
X100578Y157587D01*
X100544Y157671D01*
X100506Y157753D01*
X100464Y157834D01*
X100419Y157913D01*
X100371Y157990D01*
X100320Y158065D01*
X100266Y158137D01*
X100209Y158208D01*
X100149Y158276D01*
X100086Y158341D01*
X100021Y158404D01*
X99953Y158464D01*
X99882Y158521D01*
X99810Y158575D01*
X99735Y158627D01*
X99658Y158675D01*
X99579Y158720D01*
X99498Y158761D01*
X99416Y158799D01*
X99332Y158834D01*
X99247Y158865D01*
X99161Y158893D01*
X99074Y158917D01*
X98985Y158937D01*
X98896Y158954D01*
X98806Y158967D01*
X98716Y158977D01*
X98626Y158982D01*
X98535Y158984D01*
X98444Y158982D01*
X98354Y158977D01*
X98264Y158967D01*
X98174Y158954D01*
X98085Y158937D01*
X97996Y158917D01*
X97909Y158893D01*
X97823Y158865D01*
X97738Y158834D01*
X97654Y158799D01*
X97572Y158761D01*
X97491Y158720D01*
X97412Y158675D01*
X97335Y158627D01*
X97260Y158576D01*
X97188Y158521D01*
X97117Y158464D01*
X97049Y158404D01*
X96984Y158341D01*
X96921Y158276D01*
X96861Y158208D01*
X96804Y158137D01*
X96750Y158065D01*
X96699Y157990D01*
X96651Y157913D01*
X96606Y157834D01*
X96564Y157753D01*
X96526Y157671D01*
X96492Y157587D01*
X96461Y157502D01*
X96371Y157313D01*
X96286Y157121D01*
X96206Y156927D01*
X96130Y156731D01*
X96058Y156534D01*
X95992Y156335D01*
X95930Y156134D01*
X95873Y155932D01*
X95821Y155729D01*
X95774Y155524D01*
X95732Y155319D01*
X95694Y155112D01*
X95662Y154905D01*
X95635Y154697D01*
X95612Y154488D01*
X95595Y154279D01*
X95582Y154070D01*
X95575Y153860D01*
X95572Y153650D01*
X101498Y153650D02*
X101495Y153440D01*
X101488Y153230D01*
X101475Y153021D01*
X101458Y152812D01*
X101435Y152603D01*
X101408Y152395D01*
X101376Y152188D01*
X101338Y151981D01*
X101296Y151776D01*
X101249Y151571D01*
X101197Y151368D01*
X101140Y151166D01*
X101078Y150965D01*
X101012Y150766D01*
X100940Y150569D01*
X100864Y150373D01*
X100784Y150179D01*
X100699Y149988D01*
X100609Y149798D01*
X100578Y149713D01*
X100544Y149629D01*
X100506Y149547D01*
X100464Y149466D01*
X100419Y149387D01*
X100371Y149310D01*
X100320Y149235D01*
X100266Y149163D01*
X100209Y149092D01*
X100149Y149024D01*
X100086Y148959D01*
X100021Y148896D01*
X99953Y148836D01*
X99882Y148779D01*
X99810Y148724D01*
X99735Y148673D01*
X99658Y148625D01*
X99579Y148580D01*
X99498Y148539D01*
X99416Y148501D01*
X99332Y148466D01*
X99247Y148435D01*
X99161Y148407D01*
X99074Y148383D01*
X98985Y148363D01*
X98896Y148346D01*
X98806Y148333D01*
X98716Y148323D01*
X98626Y148318D01*
X98535Y148316D01*
X96461Y149798D02*
X96371Y149988D01*
X96286Y150179D01*
X96206Y150373D01*
X96130Y150569D01*
X96058Y150766D01*
X95992Y150965D01*
X95930Y151166D01*
X95873Y151368D01*
X95821Y151571D01*
X95774Y151776D01*
X95732Y151981D01*
X95694Y152188D01*
X95662Y152395D01*
X95635Y152603D01*
X95612Y152812D01*
X95595Y153021D01*
X95582Y153230D01*
X95575Y153440D01*
X95572Y153650D01*
X96461Y149798D02*
X96492Y149713D01*
X96526Y149629D01*
X96565Y149547D01*
X96606Y149466D01*
X96651Y149387D01*
X96699Y149310D01*
X96750Y149235D01*
X96804Y149163D01*
X96861Y149092D01*
X96921Y149024D01*
X96984Y148959D01*
X97049Y148896D01*
X97117Y148836D01*
X97188Y148779D01*
X97260Y148724D01*
X97335Y148673D01*
X97412Y148625D01*
X97491Y148580D01*
X97572Y148539D01*
X97654Y148501D01*
X97738Y148466D01*
X97823Y148435D01*
X97909Y148407D01*
X97996Y148383D01*
X98085Y148363D01*
X98174Y148346D01*
X98264Y148333D01*
X98354Y148323D01*
X98444Y148318D01*
X98535Y148316D01*
X100905Y150687D02*
X96164Y156613D01*
X90068Y157799D02*
X90068Y158984D01*
X84142Y158984D01*
X87105Y148316D01*
X79189Y147131D02*
X74447Y160169D01*
X66235Y158984D02*
X66133Y158982D01*
X66031Y158976D01*
X65929Y158966D01*
X65828Y158953D01*
X65727Y158935D01*
X65627Y158914D01*
X65528Y158889D01*
X65430Y158860D01*
X65334Y158827D01*
X65238Y158791D01*
X65144Y158751D01*
X65052Y158707D01*
X64961Y158660D01*
X64872Y158609D01*
X64785Y158556D01*
X64701Y158498D01*
X64618Y158438D01*
X64538Y158375D01*
X64461Y158308D01*
X64386Y158239D01*
X64313Y158166D01*
X64244Y158091D01*
X64177Y158014D01*
X64114Y157934D01*
X64054Y157851D01*
X63996Y157767D01*
X63943Y157680D01*
X63892Y157591D01*
X63845Y157500D01*
X63801Y157408D01*
X63761Y157314D01*
X63725Y157218D01*
X63692Y157122D01*
X63663Y157024D01*
X63638Y156925D01*
X63617Y156825D01*
X63599Y156724D01*
X63586Y156623D01*
X63576Y156521D01*
X63570Y156419D01*
X63568Y156317D01*
X66235Y158984D02*
X66351Y158982D01*
X66468Y158976D01*
X66584Y158966D01*
X66699Y158952D01*
X66814Y158935D01*
X66929Y158913D01*
X67042Y158887D01*
X67155Y158858D01*
X67267Y158825D01*
X67377Y158788D01*
X67486Y158747D01*
X67594Y158703D01*
X67700Y158655D01*
X67804Y158603D01*
X67907Y158548D01*
X68008Y158490D01*
X68106Y158428D01*
X68203Y158363D01*
X68297Y158294D01*
X68389Y158222D01*
X68478Y158148D01*
X68565Y158070D01*
X68649Y157989D01*
X68730Y157906D01*
X68808Y157820D01*
X68884Y157731D01*
X68956Y157640D01*
X69025Y157546D01*
X69091Y157450D01*
X69154Y157352D01*
X69213Y157252D01*
X69269Y157150D01*
X69321Y157046D01*
X69370Y156940D01*
X69415Y156832D01*
X69457Y156724D01*
X69494Y156614D01*
X64456Y154242D02*
X64381Y154316D01*
X64309Y154393D01*
X64240Y154473D01*
X64173Y154555D01*
X64110Y154639D01*
X64050Y154726D01*
X63993Y154814D01*
X63939Y154905D01*
X63889Y154998D01*
X63842Y155092D01*
X63799Y155188D01*
X63759Y155286D01*
X63723Y155385D01*
X63690Y155485D01*
X63662Y155587D01*
X63637Y155689D01*
X63615Y155793D01*
X63598Y155897D01*
X63584Y156001D01*
X63575Y156106D01*
X63569Y156212D01*
X63567Y156317D01*
X64457Y154243D02*
X69494Y148316D01*
X63568Y148316D01*
X58064Y153650D02*
X58061Y153860D01*
X58054Y154070D01*
X58041Y154279D01*
X58024Y154488D01*
X58001Y154697D01*
X57974Y154905D01*
X57942Y155112D01*
X57904Y155319D01*
X57862Y155524D01*
X57815Y155729D01*
X57763Y155932D01*
X57706Y156134D01*
X57644Y156335D01*
X57578Y156534D01*
X57506Y156731D01*
X57430Y156927D01*
X57350Y157121D01*
X57265Y157313D01*
X57175Y157502D01*
X57144Y157587D01*
X57110Y157671D01*
X57072Y157753D01*
X57030Y157834D01*
X56985Y157913D01*
X56937Y157990D01*
X56886Y158065D01*
X56832Y158137D01*
X56775Y158208D01*
X56715Y158276D01*
X56652Y158341D01*
X56587Y158404D01*
X56519Y158464D01*
X56448Y158521D01*
X56376Y158575D01*
X56301Y158627D01*
X56224Y158675D01*
X56145Y158720D01*
X56064Y158761D01*
X55982Y158799D01*
X55898Y158834D01*
X55813Y158865D01*
X55727Y158893D01*
X55640Y158917D01*
X55551Y158937D01*
X55462Y158954D01*
X55372Y158967D01*
X55282Y158977D01*
X55192Y158982D01*
X55101Y158984D01*
X55010Y158982D01*
X54920Y158977D01*
X54830Y158967D01*
X54740Y158954D01*
X54651Y158937D01*
X54562Y158917D01*
X54475Y158893D01*
X54389Y158865D01*
X54304Y158834D01*
X54220Y158799D01*
X54138Y158761D01*
X54057Y158720D01*
X53978Y158675D01*
X53901Y158627D01*
X53826Y158576D01*
X53754Y158521D01*
X53683Y158464D01*
X53615Y158404D01*
X53550Y158341D01*
X53487Y158276D01*
X53427Y158208D01*
X53370Y158137D01*
X53316Y158065D01*
X53265Y157990D01*
X53217Y157913D01*
X53172Y157834D01*
X53130Y157753D01*
X53092Y157671D01*
X53058Y157587D01*
X53027Y157502D01*
X52937Y157313D01*
X52852Y157121D01*
X52772Y156927D01*
X52696Y156731D01*
X52624Y156534D01*
X52558Y156335D01*
X52496Y156134D01*
X52439Y155932D01*
X52387Y155729D01*
X52340Y155524D01*
X52298Y155319D01*
X52260Y155112D01*
X52228Y154905D01*
X52201Y154697D01*
X52178Y154488D01*
X52161Y154279D01*
X52148Y154070D01*
X52141Y153860D01*
X52138Y153650D01*
X58064Y153650D02*
X58061Y153440D01*
X58054Y153230D01*
X58041Y153021D01*
X58024Y152812D01*
X58001Y152603D01*
X57974Y152395D01*
X57942Y152188D01*
X57904Y151981D01*
X57862Y151776D01*
X57815Y151571D01*
X57763Y151368D01*
X57706Y151166D01*
X57644Y150965D01*
X57578Y150766D01*
X57506Y150569D01*
X57430Y150373D01*
X57350Y150179D01*
X57265Y149988D01*
X57175Y149798D01*
X57144Y149713D01*
X57110Y149629D01*
X57072Y149547D01*
X57030Y149466D01*
X56985Y149387D01*
X56937Y149310D01*
X56886Y149235D01*
X56832Y149163D01*
X56775Y149092D01*
X56715Y149024D01*
X56652Y148959D01*
X56587Y148896D01*
X56519Y148836D01*
X56448Y148779D01*
X56376Y148724D01*
X56301Y148673D01*
X56224Y148625D01*
X56145Y148580D01*
X56064Y148539D01*
X55982Y148501D01*
X55898Y148466D01*
X55813Y148435D01*
X55727Y148407D01*
X55640Y148383D01*
X55551Y148363D01*
X55462Y148346D01*
X55372Y148333D01*
X55282Y148323D01*
X55192Y148318D01*
X55101Y148316D01*
X53027Y149798D02*
X52937Y149988D01*
X52852Y150179D01*
X52772Y150373D01*
X52696Y150569D01*
X52624Y150766D01*
X52558Y150965D01*
X52496Y151166D01*
X52439Y151368D01*
X52387Y151571D01*
X52340Y151776D01*
X52298Y151981D01*
X52260Y152188D01*
X52228Y152395D01*
X52201Y152603D01*
X52178Y152812D01*
X52161Y153021D01*
X52148Y153230D01*
X52141Y153440D01*
X52138Y153650D01*
X53027Y149798D02*
X53058Y149713D01*
X53092Y149629D01*
X53131Y149547D01*
X53172Y149466D01*
X53217Y149387D01*
X53265Y149310D01*
X53316Y149235D01*
X53370Y149163D01*
X53427Y149092D01*
X53487Y149024D01*
X53550Y148959D01*
X53615Y148896D01*
X53683Y148836D01*
X53754Y148779D01*
X53826Y148724D01*
X53901Y148673D01*
X53978Y148625D01*
X54057Y148580D01*
X54138Y148539D01*
X54220Y148501D01*
X54304Y148466D01*
X54389Y148435D01*
X54475Y148407D01*
X54562Y148383D01*
X54651Y148363D01*
X54740Y148346D01*
X54830Y148333D01*
X54920Y148323D01*
X55010Y148318D01*
X55101Y148316D01*
X57472Y150687D02*
X52730Y156613D01*
X43375Y158984D02*
X43273Y158982D01*
X43171Y158976D01*
X43069Y158966D01*
X42968Y158953D01*
X42867Y158935D01*
X42767Y158914D01*
X42668Y158889D01*
X42570Y158860D01*
X42473Y158827D01*
X42378Y158791D01*
X42284Y158751D01*
X42192Y158707D01*
X42101Y158660D01*
X42012Y158609D01*
X41925Y158556D01*
X41841Y158498D01*
X41758Y158438D01*
X41678Y158375D01*
X41601Y158308D01*
X41526Y158239D01*
X41453Y158166D01*
X41384Y158091D01*
X41317Y158014D01*
X41254Y157934D01*
X41194Y157851D01*
X41136Y157767D01*
X41083Y157680D01*
X41032Y157591D01*
X40985Y157500D01*
X40941Y157408D01*
X40901Y157314D01*
X40865Y157218D01*
X40832Y157122D01*
X40803Y157024D01*
X40778Y156925D01*
X40757Y156825D01*
X40739Y156724D01*
X40726Y156623D01*
X40716Y156521D01*
X40710Y156419D01*
X40708Y156317D01*
X43375Y158984D02*
X43491Y158982D01*
X43608Y158976D01*
X43724Y158966D01*
X43839Y158952D01*
X43954Y158935D01*
X44069Y158913D01*
X44182Y158887D01*
X44295Y158858D01*
X44407Y158825D01*
X44517Y158788D01*
X44626Y158747D01*
X44734Y158703D01*
X44840Y158655D01*
X44944Y158603D01*
X45047Y158548D01*
X45148Y158490D01*
X45246Y158428D01*
X45343Y158363D01*
X45437Y158294D01*
X45529Y158222D01*
X45618Y158148D01*
X45705Y158070D01*
X45789Y157989D01*
X45870Y157906D01*
X45948Y157820D01*
X46024Y157731D01*
X46096Y157640D01*
X46165Y157546D01*
X46231Y157450D01*
X46294Y157352D01*
X46353Y157252D01*
X46409Y157150D01*
X46461Y157046D01*
X46510Y156940D01*
X46555Y156832D01*
X46597Y156724D01*
X46634Y156613D01*
X41596Y154242D02*
X41521Y154316D01*
X41449Y154393D01*
X41380Y154473D01*
X41313Y154555D01*
X41250Y154639D01*
X41190Y154726D01*
X41133Y154814D01*
X41079Y154905D01*
X41029Y154998D01*
X40982Y155092D01*
X40939Y155188D01*
X40899Y155286D01*
X40863Y155385D01*
X40830Y155485D01*
X40802Y155587D01*
X40777Y155689D01*
X40755Y155793D01*
X40738Y155897D01*
X40724Y156001D01*
X40715Y156106D01*
X40709Y156212D01*
X40707Y156317D01*
X41597Y154243D02*
X46634Y148316D01*
X40708Y148316D01*
X31945Y158984D02*
X31843Y158982D01*
X31741Y158976D01*
X31639Y158966D01*
X31538Y158953D01*
X31437Y158935D01*
X31337Y158914D01*
X31238Y158889D01*
X31140Y158860D01*
X31043Y158827D01*
X30948Y158791D01*
X30854Y158751D01*
X30762Y158707D01*
X30671Y158660D01*
X30582Y158609D01*
X30495Y158556D01*
X30411Y158498D01*
X30328Y158438D01*
X30248Y158375D01*
X30171Y158308D01*
X30096Y158239D01*
X30023Y158166D01*
X29954Y158091D01*
X29887Y158014D01*
X29824Y157934D01*
X29764Y157851D01*
X29706Y157767D01*
X29653Y157680D01*
X29602Y157591D01*
X29555Y157500D01*
X29511Y157408D01*
X29471Y157314D01*
X29435Y157218D01*
X29402Y157122D01*
X29373Y157024D01*
X29348Y156925D01*
X29327Y156825D01*
X29309Y156724D01*
X29296Y156623D01*
X29286Y156521D01*
X29280Y156419D01*
X29278Y156317D01*
X31945Y158984D02*
X32061Y158982D01*
X32178Y158976D01*
X32294Y158966D01*
X32409Y158952D01*
X32524Y158935D01*
X32639Y158913D01*
X32752Y158887D01*
X32865Y158858D01*
X32977Y158825D01*
X33087Y158788D01*
X33196Y158747D01*
X33304Y158703D01*
X33410Y158655D01*
X33514Y158603D01*
X33617Y158548D01*
X33718Y158490D01*
X33816Y158428D01*
X33913Y158363D01*
X34007Y158294D01*
X34099Y158222D01*
X34188Y158148D01*
X34275Y158070D01*
X34359Y157989D01*
X34440Y157906D01*
X34518Y157820D01*
X34594Y157731D01*
X34666Y157640D01*
X34735Y157546D01*
X34801Y157450D01*
X34864Y157352D01*
X34923Y157252D01*
X34979Y157150D01*
X35031Y157046D01*
X35080Y156940D01*
X35125Y156832D01*
X35167Y156724D01*
X35204Y156613D01*
X30166Y154242D02*
X30091Y154316D01*
X30019Y154393D01*
X29950Y154473D01*
X29883Y154555D01*
X29820Y154639D01*
X29760Y154726D01*
X29703Y154814D01*
X29649Y154905D01*
X29599Y154998D01*
X29552Y155092D01*
X29509Y155188D01*
X29469Y155286D01*
X29433Y155385D01*
X29400Y155485D01*
X29372Y155587D01*
X29347Y155689D01*
X29325Y155793D01*
X29308Y155897D01*
X29294Y156001D01*
X29285Y156106D01*
X29279Y156212D01*
X29277Y156317D01*
X30167Y154243D02*
X35204Y148316D01*
X29278Y148316D01*
D11*
X57500Y18750D03*
X72500Y18750D03*
X42500Y18750D03*
D12*
X95000Y120000D03*
D13*
X135000Y82000D03*
X108000Y82000D03*
X88000Y82000D03*
X55000Y82000D03*
X135000Y57000D03*
X55000Y57000D03*
X75000Y57000D03*
X115000Y57000D03*
X95000Y57000D03*
D12*
X167500Y112000D03*
X22500Y112000D03*
D14*
X55000Y57000D02*
X55000Y25000D01*
X75000Y25000D02*
X75000Y57000D01*
X55000Y82000D02*
X40000Y67000D01*
X40000Y25000D01*
M02*
