G04 EAGLE Gerber RS-274X export*
G75*
%MOMM*%
%FSLAX34Y34*%
%LPD*%
%INSilkscreen Top*%
%IPPOS*%
%AMOC8*
5,1,8,0,0,1.08239X$1,22.5*%
G01*
%ADD10C,0.076200*%
%ADD11C,0.177800*%
%ADD12C,1.000000*%
%ADD13C,0.206400*%
%ADD14C,0.200000*%


D10*
X8806Y34131D02*
X11939Y34131D01*
X12028Y34133D01*
X12116Y34139D01*
X12204Y34148D01*
X12292Y34161D01*
X12379Y34178D01*
X12465Y34198D01*
X12550Y34223D01*
X12635Y34250D01*
X12718Y34282D01*
X12799Y34316D01*
X12879Y34355D01*
X12957Y34396D01*
X13034Y34441D01*
X13108Y34489D01*
X13181Y34540D01*
X13251Y34594D01*
X13318Y34652D01*
X13384Y34712D01*
X13446Y34774D01*
X13506Y34840D01*
X13564Y34907D01*
X13618Y34977D01*
X13669Y35050D01*
X13717Y35124D01*
X13762Y35201D01*
X13803Y35279D01*
X13842Y35359D01*
X13876Y35440D01*
X13908Y35523D01*
X13935Y35608D01*
X13960Y35693D01*
X13980Y35779D01*
X13997Y35866D01*
X14010Y35954D01*
X14019Y36042D01*
X14025Y36130D01*
X14027Y36219D01*
X14028Y36219D02*
X14028Y37264D01*
X14027Y37264D02*
X14025Y37353D01*
X14019Y37441D01*
X14010Y37529D01*
X13997Y37617D01*
X13980Y37704D01*
X13960Y37790D01*
X13935Y37875D01*
X13908Y37960D01*
X13876Y38043D01*
X13842Y38124D01*
X13803Y38204D01*
X13762Y38282D01*
X13717Y38359D01*
X13669Y38433D01*
X13618Y38506D01*
X13564Y38576D01*
X13506Y38643D01*
X13446Y38709D01*
X13384Y38771D01*
X13318Y38831D01*
X13251Y38889D01*
X13181Y38943D01*
X13108Y38994D01*
X13034Y39042D01*
X12957Y39087D01*
X12879Y39128D01*
X12799Y39167D01*
X12718Y39201D01*
X12635Y39233D01*
X12550Y39260D01*
X12465Y39285D01*
X12379Y39305D01*
X12292Y39322D01*
X12204Y39335D01*
X12116Y39344D01*
X12028Y39350D01*
X11939Y39352D01*
X8806Y39352D01*
X8806Y43529D01*
X14028Y43529D01*
X17428Y43529D02*
X20561Y34131D01*
X23694Y43529D01*
X34800Y43529D02*
X31667Y34131D01*
X37933Y34131D02*
X34800Y43529D01*
X37150Y36481D02*
X32451Y36481D01*
X41656Y34131D02*
X41656Y43529D01*
X41656Y34131D02*
X45833Y34131D01*
X79557Y34131D02*
X81646Y34131D01*
X79557Y34131D02*
X79468Y34133D01*
X79380Y34139D01*
X79292Y34148D01*
X79204Y34161D01*
X79117Y34178D01*
X79031Y34198D01*
X78946Y34223D01*
X78861Y34250D01*
X78778Y34282D01*
X78697Y34316D01*
X78617Y34355D01*
X78539Y34396D01*
X78462Y34441D01*
X78388Y34489D01*
X78315Y34540D01*
X78245Y34594D01*
X78178Y34652D01*
X78112Y34712D01*
X78050Y34774D01*
X77990Y34840D01*
X77932Y34907D01*
X77878Y34977D01*
X77827Y35050D01*
X77779Y35124D01*
X77734Y35201D01*
X77693Y35279D01*
X77654Y35359D01*
X77620Y35440D01*
X77588Y35523D01*
X77561Y35608D01*
X77536Y35693D01*
X77516Y35779D01*
X77499Y35866D01*
X77486Y35954D01*
X77477Y36042D01*
X77471Y36130D01*
X77469Y36219D01*
X77469Y41441D01*
X77470Y41441D02*
X77472Y41532D01*
X77478Y41623D01*
X77488Y41714D01*
X77502Y41804D01*
X77519Y41893D01*
X77541Y41981D01*
X77567Y42069D01*
X77596Y42155D01*
X77629Y42240D01*
X77666Y42323D01*
X77706Y42405D01*
X77750Y42485D01*
X77797Y42563D01*
X77848Y42639D01*
X77901Y42712D01*
X77958Y42783D01*
X78019Y42852D01*
X78082Y42917D01*
X78147Y42980D01*
X78216Y43040D01*
X78287Y43098D01*
X78360Y43151D01*
X78436Y43202D01*
X78514Y43249D01*
X78594Y43293D01*
X78676Y43333D01*
X78759Y43370D01*
X78844Y43403D01*
X78930Y43432D01*
X79018Y43458D01*
X79106Y43480D01*
X79195Y43497D01*
X79285Y43511D01*
X79376Y43521D01*
X79467Y43527D01*
X79558Y43529D01*
X79557Y43529D02*
X81646Y43529D01*
X90031Y36219D02*
X90029Y36130D01*
X90023Y36042D01*
X90014Y35954D01*
X90001Y35866D01*
X89984Y35779D01*
X89964Y35693D01*
X89939Y35608D01*
X89912Y35523D01*
X89880Y35440D01*
X89846Y35359D01*
X89807Y35279D01*
X89766Y35201D01*
X89721Y35124D01*
X89673Y35050D01*
X89622Y34977D01*
X89568Y34907D01*
X89510Y34840D01*
X89450Y34774D01*
X89388Y34712D01*
X89322Y34652D01*
X89255Y34594D01*
X89185Y34540D01*
X89112Y34489D01*
X89038Y34441D01*
X88961Y34396D01*
X88883Y34355D01*
X88803Y34316D01*
X88722Y34282D01*
X88639Y34250D01*
X88554Y34223D01*
X88469Y34198D01*
X88383Y34178D01*
X88296Y34161D01*
X88208Y34148D01*
X88120Y34139D01*
X88032Y34133D01*
X87943Y34131D01*
X87814Y34133D01*
X87685Y34139D01*
X87556Y34148D01*
X87428Y34161D01*
X87300Y34178D01*
X87173Y34199D01*
X87046Y34223D01*
X86920Y34251D01*
X86795Y34283D01*
X86671Y34318D01*
X86548Y34357D01*
X86426Y34400D01*
X86306Y34446D01*
X86187Y34496D01*
X86069Y34549D01*
X85953Y34605D01*
X85839Y34665D01*
X85726Y34728D01*
X85616Y34795D01*
X85507Y34864D01*
X85401Y34937D01*
X85296Y35013D01*
X85194Y35092D01*
X85095Y35174D01*
X84997Y35258D01*
X84902Y35346D01*
X84810Y35436D01*
X85071Y41441D02*
X85073Y41530D01*
X85079Y41618D01*
X85088Y41706D01*
X85101Y41794D01*
X85118Y41881D01*
X85138Y41967D01*
X85163Y42052D01*
X85190Y42137D01*
X85222Y42220D01*
X85256Y42301D01*
X85295Y42381D01*
X85336Y42459D01*
X85381Y42536D01*
X85429Y42610D01*
X85480Y42683D01*
X85534Y42753D01*
X85592Y42820D01*
X85652Y42886D01*
X85714Y42948D01*
X85780Y43008D01*
X85847Y43066D01*
X85917Y43120D01*
X85990Y43171D01*
X86064Y43219D01*
X86141Y43264D01*
X86219Y43305D01*
X86299Y43344D01*
X86380Y43378D01*
X86463Y43410D01*
X86548Y43437D01*
X86633Y43462D01*
X86719Y43482D01*
X86806Y43499D01*
X86894Y43512D01*
X86982Y43521D01*
X87070Y43527D01*
X87159Y43529D01*
X87279Y43527D01*
X87399Y43522D01*
X87519Y43512D01*
X87638Y43500D01*
X87757Y43483D01*
X87875Y43463D01*
X87993Y43439D01*
X88109Y43412D01*
X88225Y43381D01*
X88340Y43347D01*
X88454Y43309D01*
X88567Y43267D01*
X88678Y43222D01*
X88788Y43174D01*
X88896Y43123D01*
X89003Y43068D01*
X89108Y43010D01*
X89211Y42948D01*
X89312Y42884D01*
X89412Y42816D01*
X89509Y42746D01*
X86115Y39614D02*
X86037Y39662D01*
X85961Y39714D01*
X85888Y39768D01*
X85817Y39826D01*
X85748Y39887D01*
X85682Y39951D01*
X85619Y40018D01*
X85559Y40087D01*
X85502Y40159D01*
X85448Y40233D01*
X85398Y40310D01*
X85350Y40389D01*
X85307Y40469D01*
X85266Y40552D01*
X85230Y40636D01*
X85197Y40721D01*
X85168Y40808D01*
X85142Y40897D01*
X85120Y40986D01*
X85103Y41076D01*
X85089Y41166D01*
X85079Y41258D01*
X85073Y41349D01*
X85071Y41441D01*
X88987Y38046D02*
X89065Y37998D01*
X89141Y37946D01*
X89214Y37892D01*
X89285Y37834D01*
X89354Y37773D01*
X89420Y37709D01*
X89483Y37642D01*
X89543Y37573D01*
X89600Y37501D01*
X89654Y37427D01*
X89704Y37350D01*
X89752Y37271D01*
X89795Y37191D01*
X89836Y37108D01*
X89872Y37024D01*
X89905Y36939D01*
X89934Y36852D01*
X89960Y36763D01*
X89982Y36674D01*
X89999Y36584D01*
X90013Y36494D01*
X90023Y36402D01*
X90029Y36311D01*
X90031Y36219D01*
X88987Y38047D02*
X86115Y39613D01*
X101644Y34131D02*
X103732Y34131D01*
X101644Y34131D02*
X101555Y34133D01*
X101467Y34139D01*
X101379Y34148D01*
X101291Y34161D01*
X101204Y34178D01*
X101118Y34198D01*
X101033Y34223D01*
X100948Y34250D01*
X100865Y34282D01*
X100784Y34316D01*
X100704Y34355D01*
X100626Y34396D01*
X100549Y34441D01*
X100475Y34489D01*
X100402Y34540D01*
X100332Y34594D01*
X100265Y34652D01*
X100199Y34712D01*
X100137Y34774D01*
X100077Y34840D01*
X100019Y34907D01*
X99965Y34977D01*
X99914Y35050D01*
X99866Y35124D01*
X99821Y35201D01*
X99780Y35279D01*
X99741Y35359D01*
X99707Y35440D01*
X99675Y35523D01*
X99648Y35608D01*
X99623Y35693D01*
X99603Y35779D01*
X99586Y35866D01*
X99573Y35954D01*
X99564Y36042D01*
X99558Y36130D01*
X99556Y36219D01*
X99556Y41441D01*
X99558Y41532D01*
X99564Y41623D01*
X99574Y41714D01*
X99588Y41804D01*
X99605Y41893D01*
X99627Y41981D01*
X99653Y42069D01*
X99682Y42155D01*
X99715Y42240D01*
X99752Y42323D01*
X99792Y42405D01*
X99836Y42485D01*
X99883Y42563D01*
X99934Y42639D01*
X99987Y42712D01*
X100044Y42783D01*
X100105Y42852D01*
X100168Y42917D01*
X100233Y42980D01*
X100302Y43040D01*
X100373Y43098D01*
X100446Y43151D01*
X100522Y43202D01*
X100600Y43249D01*
X100680Y43293D01*
X100762Y43333D01*
X100845Y43370D01*
X100930Y43403D01*
X101016Y43432D01*
X101104Y43458D01*
X101192Y43480D01*
X101281Y43497D01*
X101371Y43511D01*
X101462Y43521D01*
X101553Y43527D01*
X101644Y43529D01*
X103732Y43529D01*
X106679Y43529D02*
X109812Y34131D01*
X112944Y43529D01*
X126139Y43529D02*
X126139Y34131D01*
X126139Y43529D02*
X128750Y43529D01*
X128851Y43527D01*
X128952Y43521D01*
X129053Y43511D01*
X129153Y43498D01*
X129253Y43480D01*
X129352Y43459D01*
X129450Y43433D01*
X129547Y43404D01*
X129643Y43372D01*
X129737Y43335D01*
X129830Y43295D01*
X129922Y43251D01*
X130011Y43204D01*
X130099Y43153D01*
X130185Y43099D01*
X130268Y43042D01*
X130350Y42982D01*
X130428Y42918D01*
X130505Y42852D01*
X130578Y42782D01*
X130649Y42710D01*
X130717Y42635D01*
X130782Y42557D01*
X130844Y42477D01*
X130903Y42395D01*
X130959Y42310D01*
X131011Y42223D01*
X131060Y42135D01*
X131106Y42044D01*
X131147Y41952D01*
X131186Y41858D01*
X131220Y41763D01*
X131251Y41667D01*
X131278Y41569D01*
X131302Y41471D01*
X131321Y41371D01*
X131337Y41271D01*
X131349Y41171D01*
X131357Y41070D01*
X131361Y40969D01*
X131361Y40867D01*
X131357Y40766D01*
X131349Y40665D01*
X131337Y40565D01*
X131321Y40465D01*
X131302Y40365D01*
X131278Y40267D01*
X131251Y40169D01*
X131220Y40073D01*
X131186Y39978D01*
X131147Y39884D01*
X131106Y39792D01*
X131060Y39701D01*
X131011Y39612D01*
X130959Y39526D01*
X130903Y39441D01*
X130844Y39359D01*
X130782Y39279D01*
X130717Y39201D01*
X130649Y39126D01*
X130578Y39054D01*
X130505Y38984D01*
X130428Y38918D01*
X130350Y38854D01*
X130268Y38794D01*
X130185Y38737D01*
X130099Y38683D01*
X130011Y38632D01*
X129922Y38585D01*
X129830Y38541D01*
X129737Y38501D01*
X129643Y38464D01*
X129547Y38432D01*
X129450Y38403D01*
X129352Y38377D01*
X129253Y38356D01*
X129153Y38338D01*
X129053Y38325D01*
X128952Y38315D01*
X128851Y38309D01*
X128750Y38307D01*
X128750Y38308D02*
X126139Y38308D01*
X129272Y38308D02*
X131361Y34131D01*
X152294Y39352D02*
X153861Y39352D01*
X153861Y34131D01*
X150728Y34131D01*
X150639Y34133D01*
X150551Y34139D01*
X150463Y34148D01*
X150375Y34161D01*
X150288Y34178D01*
X150202Y34198D01*
X150117Y34223D01*
X150032Y34250D01*
X149949Y34282D01*
X149868Y34316D01*
X149788Y34355D01*
X149710Y34396D01*
X149633Y34441D01*
X149559Y34489D01*
X149486Y34540D01*
X149416Y34594D01*
X149349Y34652D01*
X149283Y34712D01*
X149221Y34774D01*
X149161Y34840D01*
X149103Y34907D01*
X149049Y34977D01*
X148998Y35050D01*
X148950Y35124D01*
X148905Y35201D01*
X148864Y35279D01*
X148825Y35359D01*
X148791Y35440D01*
X148759Y35523D01*
X148732Y35608D01*
X148707Y35693D01*
X148687Y35779D01*
X148670Y35866D01*
X148657Y35954D01*
X148648Y36042D01*
X148642Y36130D01*
X148640Y36219D01*
X148639Y36219D02*
X148639Y41441D01*
X148640Y41441D02*
X148642Y41532D01*
X148648Y41623D01*
X148658Y41714D01*
X148672Y41804D01*
X148689Y41893D01*
X148711Y41981D01*
X148737Y42069D01*
X148766Y42155D01*
X148799Y42240D01*
X148836Y42323D01*
X148876Y42405D01*
X148920Y42485D01*
X148967Y42563D01*
X149018Y42639D01*
X149071Y42712D01*
X149128Y42783D01*
X149189Y42852D01*
X149252Y42917D01*
X149317Y42980D01*
X149386Y43040D01*
X149457Y43098D01*
X149530Y43151D01*
X149606Y43202D01*
X149684Y43249D01*
X149764Y43293D01*
X149846Y43333D01*
X149929Y43370D01*
X150014Y43403D01*
X150100Y43432D01*
X150188Y43458D01*
X150276Y43480D01*
X150365Y43497D01*
X150455Y43511D01*
X150546Y43521D01*
X150637Y43527D01*
X150728Y43529D01*
X153861Y43529D01*
X171139Y39352D02*
X173750Y39352D01*
X173750Y39353D02*
X173851Y39351D01*
X173952Y39345D01*
X174053Y39335D01*
X174153Y39322D01*
X174253Y39304D01*
X174352Y39283D01*
X174450Y39257D01*
X174547Y39228D01*
X174643Y39196D01*
X174737Y39159D01*
X174830Y39119D01*
X174922Y39075D01*
X175011Y39028D01*
X175099Y38977D01*
X175185Y38923D01*
X175268Y38866D01*
X175350Y38806D01*
X175428Y38742D01*
X175505Y38676D01*
X175578Y38606D01*
X175649Y38534D01*
X175717Y38459D01*
X175782Y38381D01*
X175844Y38301D01*
X175903Y38219D01*
X175959Y38134D01*
X176011Y38047D01*
X176060Y37959D01*
X176106Y37868D01*
X176147Y37776D01*
X176186Y37682D01*
X176220Y37587D01*
X176251Y37491D01*
X176278Y37393D01*
X176302Y37295D01*
X176321Y37195D01*
X176337Y37095D01*
X176349Y36995D01*
X176357Y36894D01*
X176361Y36793D01*
X176361Y36691D01*
X176357Y36590D01*
X176349Y36489D01*
X176337Y36389D01*
X176321Y36289D01*
X176302Y36189D01*
X176278Y36091D01*
X176251Y35993D01*
X176220Y35897D01*
X176186Y35802D01*
X176147Y35708D01*
X176106Y35616D01*
X176060Y35525D01*
X176011Y35436D01*
X175959Y35350D01*
X175903Y35265D01*
X175844Y35183D01*
X175782Y35103D01*
X175717Y35025D01*
X175649Y34950D01*
X175578Y34878D01*
X175505Y34808D01*
X175428Y34742D01*
X175350Y34678D01*
X175268Y34618D01*
X175185Y34561D01*
X175099Y34507D01*
X175011Y34456D01*
X174922Y34409D01*
X174830Y34365D01*
X174737Y34325D01*
X174643Y34288D01*
X174547Y34256D01*
X174450Y34227D01*
X174352Y34201D01*
X174253Y34180D01*
X174153Y34162D01*
X174053Y34149D01*
X173952Y34139D01*
X173851Y34133D01*
X173750Y34131D01*
X171139Y34131D01*
X171139Y43529D01*
X173750Y43529D01*
X173840Y43527D01*
X173929Y43521D01*
X174019Y43512D01*
X174108Y43498D01*
X174196Y43481D01*
X174283Y43460D01*
X174370Y43435D01*
X174455Y43406D01*
X174539Y43374D01*
X174621Y43339D01*
X174702Y43299D01*
X174781Y43257D01*
X174858Y43211D01*
X174933Y43161D01*
X175006Y43109D01*
X175077Y43053D01*
X175145Y42995D01*
X175210Y42933D01*
X175273Y42869D01*
X175333Y42802D01*
X175390Y42733D01*
X175444Y42661D01*
X175495Y42587D01*
X175543Y42511D01*
X175587Y42433D01*
X175628Y42353D01*
X175666Y42271D01*
X175700Y42188D01*
X175730Y42103D01*
X175757Y42017D01*
X175780Y41931D01*
X175799Y41843D01*
X175814Y41754D01*
X175826Y41665D01*
X175834Y41576D01*
X175838Y41486D01*
X175838Y41396D01*
X175834Y41306D01*
X175826Y41217D01*
X175814Y41128D01*
X175799Y41039D01*
X175780Y40951D01*
X175757Y40865D01*
X175730Y40779D01*
X175700Y40694D01*
X175666Y40611D01*
X175628Y40529D01*
X175587Y40449D01*
X175543Y40371D01*
X175495Y40295D01*
X175444Y40221D01*
X175390Y40149D01*
X175333Y40080D01*
X175273Y40013D01*
X175210Y39949D01*
X175145Y39887D01*
X175077Y39829D01*
X175006Y39773D01*
X174933Y39721D01*
X174858Y39671D01*
X174781Y39625D01*
X174702Y39583D01*
X174621Y39543D01*
X174539Y39508D01*
X174455Y39476D01*
X174370Y39447D01*
X174283Y39422D01*
X174196Y39401D01*
X174108Y39384D01*
X174019Y39370D01*
X173929Y39361D01*
X173840Y39355D01*
X173750Y39353D01*
D11*
X38408Y149493D02*
X34767Y149493D01*
X34669Y149495D01*
X34572Y149501D01*
X34474Y149511D01*
X34378Y149524D01*
X34282Y149542D01*
X34186Y149564D01*
X34092Y149589D01*
X33998Y149618D01*
X33906Y149651D01*
X33816Y149687D01*
X33727Y149727D01*
X33639Y149771D01*
X33553Y149818D01*
X33470Y149869D01*
X33388Y149923D01*
X33309Y149980D01*
X33232Y150040D01*
X33158Y150103D01*
X33086Y150170D01*
X33017Y150239D01*
X32950Y150311D01*
X32887Y150385D01*
X32827Y150462D01*
X32770Y150541D01*
X32716Y150623D01*
X32665Y150707D01*
X32618Y150792D01*
X32574Y150880D01*
X32534Y150969D01*
X32498Y151059D01*
X32465Y151151D01*
X32436Y151245D01*
X32411Y151339D01*
X32389Y151435D01*
X32371Y151531D01*
X32358Y151627D01*
X32348Y151725D01*
X32342Y151822D01*
X32340Y151920D01*
X32340Y152527D01*
X32342Y152635D01*
X32348Y152743D01*
X32357Y152851D01*
X32371Y152959D01*
X32388Y153066D01*
X32409Y153172D01*
X32434Y153277D01*
X32463Y153382D01*
X32495Y153485D01*
X32531Y153587D01*
X32571Y153688D01*
X32614Y153787D01*
X32661Y153885D01*
X32711Y153981D01*
X32765Y154075D01*
X32822Y154167D01*
X32882Y154257D01*
X32945Y154345D01*
X33012Y154431D01*
X33081Y154514D01*
X33153Y154594D01*
X33229Y154672D01*
X33307Y154748D01*
X33387Y154820D01*
X33470Y154889D01*
X33556Y154956D01*
X33644Y155019D01*
X33734Y155079D01*
X33826Y155136D01*
X33920Y155190D01*
X34016Y155240D01*
X34114Y155287D01*
X34213Y155330D01*
X34314Y155370D01*
X34416Y155406D01*
X34519Y155438D01*
X34624Y155467D01*
X34729Y155492D01*
X34835Y155513D01*
X34942Y155530D01*
X35050Y155544D01*
X35158Y155553D01*
X35266Y155559D01*
X35374Y155561D01*
X35482Y155559D01*
X35590Y155553D01*
X35698Y155544D01*
X35806Y155530D01*
X35913Y155513D01*
X36019Y155492D01*
X36124Y155467D01*
X36229Y155438D01*
X36332Y155406D01*
X36434Y155370D01*
X36535Y155330D01*
X36634Y155287D01*
X36732Y155240D01*
X36828Y155190D01*
X36922Y155136D01*
X37014Y155079D01*
X37104Y155019D01*
X37192Y154956D01*
X37278Y154889D01*
X37361Y154820D01*
X37441Y154748D01*
X37519Y154672D01*
X37595Y154594D01*
X37667Y154514D01*
X37736Y154431D01*
X37803Y154345D01*
X37866Y154257D01*
X37926Y154167D01*
X37983Y154075D01*
X38037Y153981D01*
X38087Y153885D01*
X38134Y153787D01*
X38177Y153688D01*
X38217Y153587D01*
X38253Y153485D01*
X38285Y153382D01*
X38314Y153277D01*
X38339Y153172D01*
X38360Y153066D01*
X38377Y152959D01*
X38391Y152851D01*
X38400Y152743D01*
X38406Y152635D01*
X38408Y152527D01*
X38408Y149493D01*
X38407Y149493D02*
X38405Y149354D01*
X38399Y149216D01*
X38389Y149078D01*
X38375Y148940D01*
X38358Y148802D01*
X38336Y148665D01*
X38310Y148529D01*
X38281Y148394D01*
X38248Y148259D01*
X38210Y148125D01*
X38169Y147993D01*
X38125Y147862D01*
X38076Y147732D01*
X38024Y147603D01*
X37968Y147477D01*
X37909Y147351D01*
X37846Y147228D01*
X37780Y147106D01*
X37710Y146986D01*
X37636Y146869D01*
X37560Y146753D01*
X37480Y146640D01*
X37397Y146529D01*
X37311Y146420D01*
X37221Y146314D01*
X37129Y146211D01*
X37034Y146110D01*
X36936Y146012D01*
X36835Y145917D01*
X36732Y145825D01*
X36626Y145735D01*
X36517Y145649D01*
X36406Y145566D01*
X36293Y145486D01*
X36177Y145410D01*
X36060Y145336D01*
X35940Y145266D01*
X35818Y145200D01*
X35695Y145137D01*
X35569Y145078D01*
X35443Y145022D01*
X35314Y144970D01*
X35184Y144921D01*
X35053Y144877D01*
X34921Y144836D01*
X34787Y144798D01*
X34652Y144765D01*
X34517Y144736D01*
X34381Y144710D01*
X34244Y144688D01*
X34106Y144671D01*
X33968Y144657D01*
X33830Y144647D01*
X33692Y144641D01*
X33553Y144639D01*
X50480Y144639D02*
X50480Y155561D01*
X53513Y155561D01*
X53621Y155559D01*
X53729Y155553D01*
X53837Y155544D01*
X53945Y155530D01*
X54052Y155513D01*
X54158Y155492D01*
X54263Y155467D01*
X54368Y155438D01*
X54471Y155406D01*
X54573Y155370D01*
X54674Y155330D01*
X54773Y155287D01*
X54871Y155240D01*
X54967Y155190D01*
X55061Y155136D01*
X55153Y155079D01*
X55243Y155019D01*
X55331Y154956D01*
X55417Y154889D01*
X55500Y154820D01*
X55580Y154748D01*
X55658Y154672D01*
X55734Y154594D01*
X55806Y154514D01*
X55875Y154431D01*
X55942Y154345D01*
X56005Y154257D01*
X56065Y154167D01*
X56122Y154075D01*
X56176Y153981D01*
X56226Y153885D01*
X56273Y153787D01*
X56316Y153688D01*
X56356Y153587D01*
X56392Y153485D01*
X56424Y153382D01*
X56453Y153277D01*
X56478Y153172D01*
X56499Y153066D01*
X56516Y152959D01*
X56530Y152851D01*
X56539Y152743D01*
X56545Y152635D01*
X56547Y152527D01*
X56545Y152419D01*
X56539Y152311D01*
X56530Y152203D01*
X56516Y152095D01*
X56499Y151988D01*
X56478Y151882D01*
X56453Y151777D01*
X56424Y151672D01*
X56392Y151569D01*
X56356Y151467D01*
X56316Y151366D01*
X56273Y151267D01*
X56226Y151169D01*
X56176Y151073D01*
X56122Y150979D01*
X56065Y150887D01*
X56005Y150797D01*
X55942Y150709D01*
X55875Y150623D01*
X55806Y150540D01*
X55734Y150460D01*
X55658Y150382D01*
X55580Y150306D01*
X55500Y150234D01*
X55417Y150165D01*
X55331Y150098D01*
X55243Y150035D01*
X55153Y149975D01*
X55061Y149918D01*
X54967Y149864D01*
X54871Y149814D01*
X54773Y149767D01*
X54674Y149724D01*
X54573Y149684D01*
X54471Y149648D01*
X54368Y149616D01*
X54263Y149587D01*
X54158Y149562D01*
X54052Y149541D01*
X53945Y149524D01*
X53837Y149510D01*
X53729Y149501D01*
X53621Y149495D01*
X53513Y149493D01*
X50480Y149493D01*
X62044Y144639D02*
X62044Y155561D01*
X60830Y144639D02*
X63257Y144639D01*
X63257Y155561D02*
X60830Y155561D01*
X68535Y155561D02*
X68535Y144639D01*
X74602Y144639D02*
X68535Y155561D01*
X74602Y155561D02*
X74602Y144639D01*
X86978Y144639D02*
X86978Y155561D01*
X90619Y149493D01*
X94259Y155561D01*
X94259Y144639D01*
X100905Y144639D02*
X100905Y155561D01*
X99692Y144639D02*
X102119Y144639D01*
X102119Y155561D02*
X99692Y155561D01*
X107397Y155561D02*
X107397Y144639D01*
X113464Y144639D02*
X107397Y155561D01*
X113464Y155561D02*
X113464Y144639D01*
X119955Y144639D02*
X119955Y155561D01*
X118742Y144639D02*
X121169Y144639D01*
X121169Y155561D02*
X118742Y155561D01*
X132543Y155561D02*
X132543Y144639D01*
X132543Y155561D02*
X135576Y155561D01*
X135684Y155559D01*
X135792Y155553D01*
X135900Y155544D01*
X136008Y155530D01*
X136115Y155513D01*
X136221Y155492D01*
X136326Y155467D01*
X136431Y155438D01*
X136534Y155406D01*
X136636Y155370D01*
X136737Y155330D01*
X136836Y155287D01*
X136934Y155240D01*
X137030Y155190D01*
X137124Y155136D01*
X137216Y155079D01*
X137306Y155019D01*
X137394Y154956D01*
X137480Y154889D01*
X137563Y154820D01*
X137643Y154748D01*
X137721Y154672D01*
X137797Y154594D01*
X137869Y154514D01*
X137938Y154431D01*
X138005Y154345D01*
X138068Y154257D01*
X138128Y154167D01*
X138185Y154075D01*
X138239Y153981D01*
X138289Y153885D01*
X138336Y153787D01*
X138379Y153688D01*
X138419Y153587D01*
X138455Y153485D01*
X138487Y153382D01*
X138516Y153277D01*
X138541Y153172D01*
X138562Y153066D01*
X138579Y152959D01*
X138593Y152851D01*
X138602Y152743D01*
X138608Y152635D01*
X138610Y152527D01*
X138610Y147673D01*
X138608Y147565D01*
X138602Y147457D01*
X138593Y147349D01*
X138579Y147241D01*
X138562Y147134D01*
X138541Y147028D01*
X138516Y146923D01*
X138487Y146818D01*
X138455Y146715D01*
X138419Y146613D01*
X138379Y146512D01*
X138336Y146413D01*
X138289Y146315D01*
X138239Y146219D01*
X138185Y146125D01*
X138128Y146033D01*
X138068Y145943D01*
X138005Y145855D01*
X137938Y145769D01*
X137869Y145686D01*
X137797Y145606D01*
X137721Y145528D01*
X137643Y145452D01*
X137563Y145380D01*
X137480Y145311D01*
X137394Y145244D01*
X137306Y145181D01*
X137216Y145121D01*
X137124Y145064D01*
X137030Y145010D01*
X136934Y144960D01*
X136836Y144913D01*
X136737Y144870D01*
X136636Y144830D01*
X136534Y144794D01*
X136431Y144762D01*
X136326Y144733D01*
X136221Y144708D01*
X136115Y144687D01*
X136008Y144670D01*
X135900Y144656D01*
X135792Y144647D01*
X135684Y144641D01*
X135576Y144639D01*
X132543Y144639D01*
X145101Y144639D02*
X145101Y155561D01*
X143888Y144639D02*
X146315Y144639D01*
X146315Y155561D02*
X143888Y155561D01*
X151593Y155561D02*
X151593Y144639D01*
X157660Y144639D02*
X151593Y155561D01*
X157660Y155561D02*
X157660Y144639D01*
D10*
X56758Y43529D02*
X53626Y34131D01*
X59891Y34131D02*
X56758Y43529D01*
X59108Y36481D02*
X54409Y36481D01*
X63653Y34131D02*
X63653Y43529D01*
X66264Y43529D01*
X66365Y43527D01*
X66466Y43521D01*
X66567Y43511D01*
X66667Y43498D01*
X66767Y43480D01*
X66866Y43459D01*
X66964Y43433D01*
X67061Y43404D01*
X67157Y43372D01*
X67251Y43335D01*
X67344Y43295D01*
X67436Y43251D01*
X67525Y43204D01*
X67613Y43153D01*
X67699Y43099D01*
X67782Y43042D01*
X67864Y42982D01*
X67942Y42918D01*
X68019Y42852D01*
X68092Y42782D01*
X68163Y42710D01*
X68231Y42635D01*
X68296Y42557D01*
X68358Y42477D01*
X68417Y42395D01*
X68473Y42310D01*
X68525Y42223D01*
X68574Y42135D01*
X68620Y42044D01*
X68661Y41952D01*
X68700Y41858D01*
X68734Y41763D01*
X68765Y41667D01*
X68792Y41569D01*
X68816Y41471D01*
X68835Y41371D01*
X68851Y41271D01*
X68863Y41171D01*
X68871Y41070D01*
X68875Y40969D01*
X68875Y40867D01*
X68871Y40766D01*
X68863Y40665D01*
X68851Y40565D01*
X68835Y40465D01*
X68816Y40365D01*
X68792Y40267D01*
X68765Y40169D01*
X68734Y40073D01*
X68700Y39978D01*
X68661Y39884D01*
X68620Y39792D01*
X68574Y39701D01*
X68525Y39612D01*
X68473Y39526D01*
X68417Y39441D01*
X68358Y39359D01*
X68296Y39279D01*
X68231Y39201D01*
X68163Y39126D01*
X68092Y39054D01*
X68019Y38984D01*
X67942Y38918D01*
X67864Y38854D01*
X67782Y38794D01*
X67699Y38737D01*
X67613Y38683D01*
X67525Y38632D01*
X67436Y38585D01*
X67344Y38541D01*
X67251Y38501D01*
X67157Y38464D01*
X67061Y38432D01*
X66964Y38403D01*
X66866Y38377D01*
X66767Y38356D01*
X66667Y38338D01*
X66567Y38325D01*
X66466Y38315D01*
X66365Y38309D01*
X66264Y38307D01*
X66264Y38308D02*
X63653Y38308D01*
X66786Y38308D02*
X68875Y34131D01*
D12*
X22500Y73750D03*
D13*
X18749Y75000D02*
X19197Y75865D01*
X19624Y76740D01*
X20030Y77625D01*
X20415Y78519D01*
X20779Y79422D01*
X21120Y80334D01*
X21440Y81254D01*
X21739Y82180D01*
X22015Y83114D01*
X22268Y84054D01*
X22499Y85000D01*
D14*
X22501Y85000D02*
X22732Y84054D01*
X22985Y83114D01*
X23261Y82180D01*
X23560Y81254D01*
X23880Y80334D01*
X24221Y79422D01*
X24585Y78519D01*
X24970Y77625D01*
X25376Y76740D01*
X25803Y75865D01*
X26251Y75000D01*
X26250Y75000D02*
X18750Y75000D01*
X22500Y77500D02*
X22500Y81250D01*
M02*
